<?xml version="1.0" standalone="no"?>
<svg width="464" height="320" viewBox="0 0 464 320" version="1.1" xmlns="http://www.w3.org/2000/svg" xmlns:xlink="http://www.w3.org/1999/xlink">

  <defs>
    <!-- ttx -->
    <g id="ttx">
      <rect x="0" y="0" width="128" height="128" fill="#EEEEEE"/>
      <path x="3" y="3" fill="none" stroke="#FFFFFF" stroke-width="2" d="M2,2 h124 v124 h-124 z"/>
      <rect x="0" y="0" width="32" height="32" fill="#FFFFFF" stroke="#FFFFFF"/>
      <path x="0" y="0" fill="none" stroke-width="2" d="M0,0 h128 v128 h-128 z"/>
    </g>
    <!-- 白表 -->
    <g id="ttw" stroke="#424242">
      <rect x="0" y="0" width="128" height="128" fill="#EEEEEE" stroke="#FFFFFF"/>
      <path x="3" y="3" fill="none" stroke="#FFFFFF" stroke-width="2" d="M2,2 h124 v124 h-124 z"/>
      <path fill="none" stroke-width="1" d="M-1.5,-1.5 h131 v131 h-131 z"/>
      <path fill="none" stroke-width="1" d="M0.5,0.5 h127 v127 h-127 z"/>
    </g>
    <!-- 黒表 -->
    <g id="ttb" stroke="#424242">
      <rect x="0" y="0" width="128" height="128" fill="#EEEEEE"/>
      <path x="3" y="3" fill="none" stroke="#FFFFFF" stroke-width="2" d="M2,2 h124 v124 h-124 z"/>
      <path x="0" y="0" fill="none" stroke-width="2" d="M0,0 h128 v128 h-128 z"/>
    </g>
    <!-- arrow head -->
    <marker id="mhead" markerUnits="strokeWidth" markerWidth="5" markerHeight="5" viewBox="0 0 10 10" refX="5" refY="5" orient="auto">
      <polygon points="0,0 2,5 0,10 10,5"/>
    </marker>
  </defs>
  <!-- ttc -->
  <g stroke="#FFA726" transform="translate(168,182)">
    <use xlink:href="#ttx"/>
    <g font-family="'Hiragino Kaku Gothic ProN', 'Hiragino Sans', 'Noto Sans JP', 'Meiryo', sans-serif" font-size="16" fill="#424242" stroke="none">
    <text x="48" y="24">本表</text>
    <text x="56" y="96">▽</text>
    <text x="80" y="72">▲</text>
    <text x="2" y="16">☆</text>
    <text x="14" y="30">★</text>
    </g>
  </g>
  <!-- ttl -->
  <g stroke="#26A69A" transform="translate(8,182)">
    <use xlink:href="#ttx"/>
    <g font-family="'Hiragino Kaku Gothic ProN', 'Hiragino Sans', 'Noto Sans JP', 'Meiryo', sans-serif" font-size="16" fill="#424242" stroke="none">
    <text x="48" y="24">左表</text>
    </g>
  </g>
  <!-- ttr -->
  <g stroke="#EC407A" transform="translate(328,182)">
    <use xlink:href="#ttx"/>
    <g font-family="'Hiragino Kaku Gothic ProN', 'Hiragino Sans', 'Noto Sans JP', 'Meiryo', sans-serif" font-size="16" fill="#424242" stroke="none">
    <text x="48" y="24">右表</text>
    </g>
  </g>
  <!-- ttw -->
  <g transform="translate(100,8)">
    <use xlink:href="#ttw"/>
    <g font-family="'Hiragino Kaku Gothic ProN', 'Hiragino Sans', 'Noto Sans JP', 'Meiryo', sans-serif" font-size="16" fill="#424242" stroke="none">
    <text x="48" y="24">白表</text>
    </g>
  </g>
  <!-- ttb -->
  <g transform="translate(236,8)">
    <use xlink:href="#ttb"/>
    <g font-family="'Hiragino Kaku Gothic ProN', 'Hiragino Sans', 'Noto Sans JP', 'Meiryo', sans-serif" font-size="16" fill="#424242" stroke="none">
    <text x="48" y="24">黒表</text>
    </g>
  </g>
  <!-- ss -->
  <g stroke="#424242" stroke-width="2" marker-end="url(#mhead)">
    <!-- ssl -->
    <path d="M222,274 L144,246"/>
    <!-- ssr -->
    <path d="M266,246 L320,246"/>
    <!-- ssw -->
    <path d="M176,182 L166,144"/>
    <!-- ssb -->
    <path d="M196,198 L296,144"/>
  </g>
</svg>
