<?xml version="1.0" standalone="no"?>

<svg width="680" height="680" viewBox="0 0 680  680" version="1.1" xmlns="http://www.w3.org/2000/svg" xmlns:xlink="http://www.w3.org/1999/xlink">
<rect x="10" y="10" width="660" height="660" fill="#FFFFFF" stroke="#424242" stroke-width="4"/>
<g fill="#424242" font-family="'Hiragino Kaku Gothic ProN', 'Hiragino Sans', 'Noto Sans JP', 'Meiryo', sans-serif" font-size="14">
<text x="20" y="34">磔</text>
<text x="36" y="34">稈</text>
<text x="52" y="34">站</text>
<text x="68" y="34">箒</text>
<text x="84" y="34">籖</text>
<text x="100" y="34">紿</text>
<text x="116" y="34">縡</text>
<text x="132" y="34">纎</text>
<text x="148" y="34">翕</text>
<text x="164" y="34">肭</text>
<text x="180" y="34">膩</text>
<text x="196" y="34">艤</text>
<text x="212" y="34">荅</text>
<text x="228" y="34">蔆</text>
<text x="244" y="34">蔔</text>
<text x="260" y="34">蘆</text>
<text x="276" y="34">蜍</text>
<text x="292" y="34">蟲</text>
<text x="308" y="34">袤</text>
<text x="324" y="34">襷</text>
<text x="340" y="34">誂</text>
<text x="356" y="34">譎</text>
<text x="372" y="34">戝</text>
<text x="388" y="34">跛</text>
<text x="404" y="34">躔</text>
<text x="420" y="34">轜</text>
<text x="436" y="34">遞</text>
<text x="452" y="34">醪</text>
<text x="468" y="34">鋩</text>
<text x="484" y="34">鐡</text>
<text x="500" y="34">闕</text>
<text x="516" y="34">襍</text>
<text x="532" y="34">鞏</text>
<text x="548" y="34">飃</text>
<text x="564" y="34">駱</text>
<text x="580" y="34">髯</text>
<text x="596" y="34">鮹</text>
<text x="612" y="34">鳬</text>
<text x="628" y="34">鶺</text>
<text x="644" y="34">黥</text>
<text x="20" y="50">碾</text>
<text x="36" y="50">稍</text>
<text x="52" y="50">竚</text>
<text x="68" y="50">箏</text>
<text x="84" y="50">籥</text>
<text x="100" y="50">紵</text>
<text x="116" y="50">縒</text>
<text x="132" y="50">纛</text>
<text x="148" y="50">翔</text>
<text x="164" y="50">冐</text>
<text x="180" y="50">膰</text>
<text x="196" y="50">艢</text>
<text x="212" y="50">茯</text>
<text x="228" y="50">菻</text>
<text x="244" y="50">蓼</text>
<text x="260" y="50">蘢</text>
<text x="276" y="50">蛹</text>
<text x="292" y="50">蟠</text>
<text x="308" y="50">袰</text>
<text x="324" y="50">襾</text>
<text x="340" y="50">誄</text>
<text x="356" y="50">證</text>
<text x="372" y="50">貭</text>
<text x="388" y="50">跋</text>
<text x="404" y="50">躙</text>
<text x="420" y="50">轢</text>
<text x="436" y="50">遨</text>
<text x="452" y="50">醵</text>
<text x="468" y="50">錏</text>
<text x="484" y="50">鐺</text>
<text x="500" y="50">闔</text>
<text x="516" y="50">雜</text>
<text x="532" y="50">鞐</text>
<text x="548" y="50">飆</text>
<text x="564" y="50">駲</text>
<text x="580" y="50">髫</text>
<text x="596" y="50">鯆</text>
<text x="612" y="50">鳰</text>
<text x="628" y="50">鷆</text>
<text x="644" y="50">黨</text>
<text x="20" y="66">碼</text>
<text x="36" y="66">稘</text>
<text x="52" y="66">竝</text>
<text x="68" y="66">筝</text>
<text x="84" y="66">籬</text>
<text x="100" y="66">絆</text>
<text x="116" y="66">縱</text>
<text x="132" y="66">纜</text>
<text x="148" y="66">翡</text>
<text x="164" y="66">肬</text>
<text x="180" y="66">膵</text>
<text x="196" y="66">艨</text>
<text x="212" y="66">茫</text>
<text x="228" y="66">葭</text>
<text x="244" y="66">蕀</text>
<text x="260" y="66">蘚</text>
<text x="276" y="66">蜊</text>
<text x="292" y="66">蠏</text>
<text x="308" y="66">袿</text>
<text x="324" y="66">覃</text>
<text x="340" y="66">誨</text>
<text x="356" y="66">譖</text>
<text x="372" y="66">貽</text>
<text x="388" y="66">跪</text>
<text x="404" y="66">躪</text>
<text x="420" y="66">轣</text>
<text x="436" y="66">遯</text>
<text x="452" y="66">醴</text>
<text x="468" y="66">鋺</text>
<text x="484" y="66">鑁</text>
<text x="500" y="66">闖</text>
<text x="516" y="66">霍</text>
<text x="532" y="66">鞜</text>
<text x="548" y="66">飩</text>
<text x="564" y="66">駻</text>
<text x="580" y="66">髮</text>
<text x="596" y="66">鯏</text>
<text x="612" y="66">鴉</text>
<text x="628" y="66">鷏</text>
<text x="644" y="66">黯</text>
<text x="20" y="82">磅</text>
<text x="36" y="82">稙</text>
<text x="52" y="82">竡</text>
<text x="68" y="82">箙</text>
<text x="84" y="82">籵</text>
<text x="100" y="82">絳</text>
<text x="116" y="82">縟</text>
<text x="132" y="82">缸</text>
<text x="148" y="82">翦</text>
<text x="164" y="82">胛</text>
<text x="180" y="82">膾</text>
<text x="196" y="82">艪</text>
<text x="212" y="82">茗</text>
<text x="228" y="82">萪</text>
<text x="244" y="82">蕣</text>
<text x="260" y="82">蘰</text>
<text x="276" y="82">蜴</text>
<text x="292" y="82">蠍</text>
<text x="308" y="82">袱</text>
<text x="324" y="82">覈</text>
<text x="340" y="82">誡</text>
<text x="356" y="82">譛</text>
<text x="372" y="82">貲</text>
<text x="388" y="82">跫</text>
<text x="404" y="82">躡</text>
<text x="420" y="82">轤</text>
<text x="436" y="82">遶</text>
<text x="452" y="82">醺</text>
<text x="468" y="82">鍄</text>
<text x="484" y="82">鑒</text>
<text x="500" y="82">關</text>
<text x="516" y="82">雕</text>
<text x="532" y="82">鞨</text>
<text x="548" y="82">飫</text>
<text x="564" y="82">駸</text>
<text x="580" y="82">髴</text>
<text x="596" y="82">鯑</text>
<text x="612" y="82">鴈</text>
<text x="628" y="82">鷂</text>
<text x="644" y="82">黴</text>
<text x="20" y="98">磊</text>
<text x="36" y="98">稠</text>
<text x="52" y="98">竢</text>
<text x="68" y="98">篋</text>
<text x="84" y="98">粃</text>
<text x="100" y="98">絖</text>
<text x="116" y="98">縉</text>
<text x="132" y="98">缺</text>
<text x="148" y="98">翩</text>
<text x="164" y="98">胥</text>
<text x="180" y="98">膸</text>
<text x="196" y="98">艫</text>
<text x="212" y="98">茘</text>
<text x="228" y="98">萼</text>
<text x="244" y="98">蕘</text>
<text x="260" y="98">蘿</text>
<text x="276" y="98">蜿</text>
<text x="292" y="98">蟾</text>
<text x="308" y="98">裃</text>
<text x="324" y="98">覊</text>
<text x="340" y="98">誑</text>
<text x="356" y="98">譚</text>
<text x="372" y="98">貳</text>
<text x="388" y="98">跟</text>
<text x="404" y="98">躬</text>
<text x="420" y="98">辜</text>
<text x="436" y="98">隨</text>
<text x="452" y="98">釀</text>
<text x="468" y="98">錙</text>
<text x="484" y="98">鑄</text>
<text x="500" y="98">闡</text>
<text x="516" y="98">雹</text>
<text x="532" y="98">鞦</text>
<text x="548" y="98">餃</text>
<text x="564" y="98">騁</text>
<text x="580" y="98">髱</text>
<text x="596" y="98">鯒</text>
<text x="612" y="98">鳫</text>
<text x="628" y="98">鷙</text>
<text x="644" y="98">黶</text>
<text x="20" y="114">磬</text>
<text x="36" y="114">稟</text>
<text x="52" y="114">竦</text>
<text x="68" y="114">篁</text>
<text x="84" y="114">粐</text>
<text x="100" y="114">絎</text>
<text x="116" y="114">縋</text>
<text x="132" y="114">罅</text>
<text x="148" y="114">翳</text>
<text x="164" y="114">胙</text>
<text x="180" y="114">膽</text>
<text x="196" y="114">舮</text>
<text x="212" y="114">莅</text>
<text x="228" y="114">蕚</text>
<text x="244" y="114">蕈</text>
<text x="260" y="114">虍</text>
<text x="276" y="114">蜷</text>
<text x="292" y="114">蟶</text>
<text x="308" y="114">裄</text>
<text x="324" y="114">覓</text>
<text x="340" y="114">誥</text>
<text x="356" y="114">譫</text>
<text x="372" y="114">貮</text>
<text x="388" y="114">跣</text>
<text x="404" y="114">躰</text>
<text x="420" y="114">辟</text>
<text x="436" y="114">遲</text>
<text x="452" y="114">釁</text>
<text x="468" y="114">錢</text>
<text x="484" y="114">鑛</text>
<text x="500" y="114">闥</text>
<text x="516" y="114">霄</text>
<text x="532" y="114">鞣</text>
<text x="548" y="114">餉</text>
<text x="564" y="114">騏</text>
<text x="580" y="114">髷</text>
<text x="596" y="114">鯣</text>
<text x="612" y="114">鴃</text>
<text x="628" y="114">鷓</text>
<text x="644" y="114">黷</text>
<text x="20" y="130">磧</text>
<text x="36" y="130">禀</text>
<text x="52" y="130">竭</text>
<text x="68" y="130">篌</text>
<text x="84" y="130">粤</text>
<text x="100" y="130">絲</text>
<text x="116" y="130">縢</text>
<text x="132" y="130">罌</text>
<text x="148" y="130">翹</text>
<text x="164" y="130">胝</text>
<text x="180" y="130">臀</text>
<text x="196" y="130">艱</text>
<text x="212" y="130">莚</text>
<text x="228" y="130">蒄</text>
<text x="244" y="130">蕁</text>
<text x="260" y="130">乕</text>
<text x="276" y="130">蜻</text>
<text x="292" y="130">蟷</text>
<text x="308" y="130">裔</text>
<text x="324" y="130">覘</text>
<text x="340" y="130">誦</text>
<text x="356" y="130">譟</text>
<text x="372" y="130">貶</text>
<text x="388" y="130">跼</text>
<text x="404" y="130">軆</text>
<text x="420" y="130">辭</text>
<text x="436" y="130">邂</text>
<text x="452" y="130">釉</text>
<text x="468" y="130">錚</text>
<text x="484" y="130">鑠</text>
<text x="500" y="130">闢</text>
<text x="516" y="130">霆</text>
<text x="532" y="130">鞳</text>
<text x="548" y="130">餒</text>
<text x="564" y="130">騅</text>
<text x="580" y="130">髻</text>
<text x="596" y="130">鯢</text>
<text x="612" y="130">鴆</text>
<text x="628" y="130">鷸</text>
<text x="644" y="130">黹</text>
<text x="20" y="146">磚</text>
<text x="36" y="146">稱</text>
<text x="52" y="146">竰</text>
<text x="68" y="146">篏</text>
<text x="84" y="146">粭</text>
<text x="100" y="146">絨</text>
<text x="116" y="146">繆</text>
<text x="132" y="146">罍</text>
<text x="148" y="146">飜</text>
<text x="164" y="146">胄</text>
<text x="180" y="146">臂</text>
<text x="196" y="146">艷</text>
<text x="212" y="146">莪</text>
<text x="228" y="146">葷</text>
<text x="244" y="146">蘂</text>
<text x="260" y="146">虔</text>
<text x="276" y="146">蜥</text>
<text x="292" y="146">蠎</text>
<text x="308" y="146">裘</text>
<text x="324" y="146">覡</text>
<text x="340" y="146">誚</text>
<text x="356" y="146">譬</text>
<text x="372" y="146">賈</text>
<text x="388" y="146">踈</text>
<text x="404" y="146">躱</text>
<text x="420" y="146">辯</text>
<text x="436" y="146">遽</text>
<text x="452" y="146">釋</text>
<text x="468" y="146">錣</text>
<text x="484" y="146">鑢</text>
<text x="500" y="146">阡</text>
<text x="516" y="146">霈</text>
<text x="532" y="146">鞴</text>
<text x="548" y="146">餔</text>
<text x="564" y="146">駢</text>
<text x="580" y="146">鬆</text>
<text x="596" y="146">鯤</text>
<text x="612" y="146">鴪</text>
<text x="628" y="146">鷦</text>
<text x="644" y="146">黻</text>
<text x="20" y="162">磽</text>
<text x="36" y="162">稻</text>
<text x="52" y="162">笂</text>
<text x="68" y="162">箴</text>
<text x="84" y="162">粢</text>
<text x="100" y="162">絮</text>
<text x="116" y="162">繦</text>
<text x="132" y="162">罎</text>
<text x="148" y="162">耆</text>
<text x="164" y="162">胚</text>
<text x="180" y="162">膺</text>
<text x="196" y="162">艸</text>
<text x="212" y="162">莟</text>
<text x="228" y="162">葫</text>
<text x="244" y="162">蕋</text>
<text x="260" y="162">號</text>
<text x="276" y="162">蜩</text>
<text x="292" y="162">蟒</text>
<text x="308" y="162">裙</text>
<text x="324" y="162">覩</text>
<text x="340" y="162">誣</text>
<text x="356" y="162">譯</text>
<text x="372" y="162">賁</text>
<text x="388" y="162">踉</text>
<text x="404" y="162">躾</text>
<text x="420" y="162">辷</text>
<text x="436" y="162">邁</text>
<text x="452" y="162">釐</text>
<text x="468" y="162">錺</text>
<text x="484" y="162">鑞</text>
<text x="500" y="162">阨</text>
<text x="516" y="162">霓</text>
<text x="532" y="162">韃</text>
<text x="548" y="162">餘</text>
<text x="564" y="162">騙</text>
<text x="580" y="162">鬘</text>
<text x="596" y="162">鯔</text>
<text x="612" y="162">鴦</text>
<text x="628" y="162">鷭</text>
<text x="644" y="162">黼</text>
<text x="20" y="178">磴</text>
<text x="36" y="178">稾</text>
<text x="52" y="178">笏</text>
<text x="68" y="178">篆</text>
<text x="84" y="178">粫</text>
<text x="100" y="178">絏</text>
<text x="116" y="178">縻</text>
<text x="132" y="178">罐</text>
<text x="148" y="178">耄</text>
<text x="164" y="178">胖</text>
<text x="180" y="178">臉</text>
<text x="196" y="178">艾</text>
<text x="212" y="178">莢</text>
<text x="228" y="178">蒭</text>
<text x="244" y="178">蕕</text>
<text x="260" y="178">虧</text>
<text x="276" y="178">蜚</text>
<text x="292" y="178">蠑</text>
<text x="308" y="178">裝</text>
<text x="324" y="178">覦</text>
<text x="340" y="178">諄</text>
<text x="356" y="178">譴</text>
<text x="372" y="178">賤</text>
<text x="388" y="178">跿</text>
<text x="404" y="178">軅</text>
<text x="420" y="178">迚</text>
<text x="436" y="178">邀</text>
<text x="452" y="178">釖</text>
<text x="468" y="178">錵</text>
<text x="484" y="178">鑪</text>
<text x="500" y="178">阮</text>
<text x="516" y="178">霎</text>
<text x="532" y="178">韆</text>
<text x="548" y="178">餡</text>
<text x="564" y="178">騫</text>
<text x="580" y="178">鬚</text>
<text x="596" y="178">鯡</text>
<text x="612" y="178">鶯</text>
<text x="628" y="178">鷯</text>
<text x="644" y="178">黽</text>
<text x="20" y="194">礇</text>
<text x="36" y="194">稷</text>
<text x="52" y="194">笊</text>
<text x="68" y="194">篝</text>
<text x="84" y="194">粡</text>
<text x="100" y="194">絣</text>
<text x="116" y="194">縵</text>
<text x="132" y="194">网</text>
<text x="148" y="194">耋</text>
<text x="164" y="194">脉</text>
<text x="180" y="194">臍</text>
<text x="196" y="194">芍</text>
<text x="212" y="194">莖</text>
<text x="228" y="194">葮</text>
<text x="244" y="194">薀</text>
<text x="260" y="194">虱</text>
<text x="276" y="194">蝠</text>
<text x="292" y="194">蠖</text>
<text x="308" y="194">裹</text>
<text x="324" y="194">覬</text>
<text x="340" y="194">諍</text>
<text x="356" y="194">譽</text>
<text x="372" y="194">賣</text>
<text x="388" y="194">踝</text>
<text x="404" y="194">軈</text>
<text x="420" y="194">迥</text>
<text x="436" y="194">邊</text>
<text x="452" y="194">釟</text>
<text x="468" y="194">錻</text>
<text x="484" y="194">鈩</text>
<text x="500" y="194">阯</text>
<text x="516" y="194">霑</text>
<text x="532" y="194">韈</text>
<text x="548" y="194">餝</text>
<text x="564" y="194">騷</text>
<text x="580" y="194">鬟</text>
<text x="596" y="194">鰺</text>
<text x="612" y="194">鴣</text>
<text x="628" y="194">鷽</text>
<text x="644" y="194">鼇</text>
<text x="20" y="210">礒</text>
<text x="36" y="210">穃</text>
<text x="52" y="210">笆</text>
<text x="68" y="210">篩</text>
<text x="84" y="210">粨</text>
<text x="100" y="210">經</text>
<text x="116" y="210">縹</text>
<text x="132" y="210">罕</text>
<text x="148" y="210">耒</text>
<text x="164" y="210">胯</text>
<text x="180" y="210">臑</text>
<text x="196" y="210">芒</text>
<text x="212" y="210">茣</text>
<text x="228" y="210">蒂</text>
<text x="244" y="210">薤</text>
<text x="260" y="210">蚓</text>
<text x="276" y="210">蝟</text>
<text x="292" y="210">蠕</text>
<text x="308" y="210">褂</text>
<text x="324" y="210">覯</text>
<text x="340" y="210">諂</text>
<text x="356" y="210">讀</text>
<text x="372" y="210">賚</text>
<text x="388" y="210">踞</text>
<text x="404" y="210">軋</text>
<text x="420" y="210">迢</text>
<text x="436" y="210">邉</text>
<text x="452" y="210">釡</text>
<text x="468" y="210">鍜</text>
<text x="484" y="210">鑰</text>
<text x="500" y="210">陂</text>
<text x="516" y="210">霏</text>
<text x="532" y="210">韋</text>
<text x="548" y="210">餞</text>
<text x="564" y="210">驅</text>
<text x="580" y="210">鬢</text>
<text x="596" y="210">鯲</text>
<text x="612" y="210">鴟</text>
<text x="628" y="210">鸚</text>
<text x="644" y="210">鼈</text>
<text x="20" y="226">礑</text>
<text x="36" y="226">穗</text>
<text x="52" y="226">笳</text>
<text x="68" y="226">簑</text>
<text x="84" y="226">粳</text>
<text x="100" y="226">綉</text>
<text x="116" y="226">繃</text>
<text x="132" y="226">罔</text>
<text x="148" y="226">耘</text>
<text x="164" y="226">胱</text>
<text x="180" y="226">臙</text>
<text x="196" y="226">芫</text>
<text x="212" y="226">莎</text>
<text x="228" y="226">葩</text>
<text x="244" y="226">薈</text>
<text x="260" y="226">蚣</text>
<text x="276" y="226">蝸</text>
<text x="292" y="226">蠢</text>
<text x="308" y="226">裼</text>
<text x="324" y="226">覲</text>
<text x="340" y="226">諚</text>
<text x="356" y="226">讌</text>
<text x="372" y="226">賽</text>
<text x="388" y="226">踐</text>
<text x="404" y="226">軛</text>
<text x="420" y="226">迪</text>
<text x="436" y="226">邏</text>
<text x="452" y="226">釛</text>
<text x="468" y="226">鍠</text>
<text x="484" y="226">鑵</text>
<text x="500" y="226">陌</text>
<text x="516" y="226">霖</text>
<text x="532" y="226">韜</text>
<text x="548" y="226">餤</text>
<text x="564" y="226">驂</text>
<text x="580" y="226">鬣</text>
<text x="596" y="226">鯱</text>
<text x="612" y="226">鵄</text>
<text x="628" y="226">鸛</text>
<text x="644" y="226">皷</text>
<text x="20" y="242">礙</text>
<text x="36" y="242">穉</text>
<text x="52" y="242">笘</text>
<text x="68" y="242">簔</text>
<text x="84" y="242">粲</text>
<text x="100" y="242">絛</text>
<text x="116" y="242">縷</text>
<text x="132" y="242">罘</text>
<text x="148" y="242">耙</text>
<text x="164" y="242">脛</text>
<text x="180" y="242">臘</text>
<text x="196" y="242">芟</text>
<text x="212" y="242">莇</text>
<text x="228" y="242">葆</text>
<text x="244" y="242">薑</text>
<text x="260" y="242">蚩</text>
<text x="276" y="242">蝌</text>
<text x="292" y="242">蠡</text>
<text x="308" y="242">裴</text>
<text x="324" y="242">覺</text>
<text x="340" y="242">諫</text>
<text x="356" y="242">讎</text>
<text x="372" y="242">賺</text>
<text x="388" y="242">踟</text>
<text x="404" y="242">軣</text>
<text x="420" y="242">迯</text>
<text x="436" y="242">邨</text>
<text x="452" y="242">釼</text>
<text x="468" y="242">鍼</text>
<text x="484" y="242">鑷</text>
<text x="500" y="242">陏</text>
<text x="516" y="242">霙</text>
<text x="532" y="242">韭</text>
<text x="548" y="242">餠</text>
<text x="564" y="242">驀</text>
<text x="580" y="242">鬥</text>
<text x="596" y="242">鯰</text>
<text x="612" y="242">鴕</text>
<text x="628" y="242">鸞</text>
<text x="644" y="242">鼕</text>
<text x="20" y="258">礬</text>
<text x="36" y="258">穡</text>
<text x="52" y="258">笙</text>
<text x="68" y="258">篦</text>
<text x="84" y="258">粱</text>
<text x="100" y="258">綏</text>
<text x="116" y="258">縲</text>
<text x="132" y="258">罟</text>
<text x="148" y="258">耜</text>
<text x="164" y="258">脩</text>
<text x="180" y="258">臈</text>
<text x="196" y="258">芻</text>
<text x="212" y="258">莊</text>
<text x="228" y="258">萬</text>
<text x="244" y="258">薊</text>
<text x="260" y="258">蚪</text>
<text x="276" y="258">蝎</text>
<text x="292" y="258">蠱</text>
<text x="308" y="258">裨</text>
<text x="324" y="258">覽</text>
<text x="340" y="258">諳</text>
<text x="356" y="258">讒</text>
<text x="372" y="258">賻</text>
<text x="388" y="258">蹂</text>
<text x="404" y="258">軼</text>
<text x="420" y="258">邇</text>
<text x="436" y="258">邯</text>
<text x="452" y="258">釵</text>
<text x="468" y="258">鍮</text>
<text x="484" y="258">鑽</text>
<text x="500" y="258">陋</text>
<text x="516" y="258">霤</text>
<text x="532" y="258">齏</text>
<text x="548" y="258">餬</text>
<text x="564" y="258">驃</text>
<text x="580" y="258">鬧</text>
<text x="596" y="258">鰕</text>
<text x="612" y="258">鴒</text>
<text x="628" y="258">鹵</text>
<text x="644" y="258">鼡</text>
<text x="20" y="274">礫</text>
<text x="36" y="274">穢</text>
<text x="52" y="274">笞</text>
<text x="68" y="274">篥</text>
<text x="84" y="274">粮</text>
<text x="100" y="274">絽</text>
<text x="116" y="274">縺</text>
<text x="132" y="274">罠</text>
<text x="148" y="274">耡</text>
<text x="164" y="274">脣</text>
<text x="180" y="274">臚</text>
<text x="196" y="274">芬</text>
<text x="212" y="274">荼</text>
<text x="228" y="274">葯</text>
<text x="244" y="274">薨</text>
<text x="260" y="274">蚋</text>
<text x="276" y="274">蝴</text>
<text x="292" y="274">蠶</text>
<text x="308" y="274">裲</text>
<text x="324" y="274">覿</text>
<text x="340" y="274">諤</text>
<text x="356" y="274">讓</text>
<text x="372" y="274">贄</text>
<text x="388" y="274">踵</text>
<text x="404" y="274">軻</text>
<text x="420" y="274">迴</text>
<text x="436" y="274">邱</text>
<text x="452" y="274">釶</text>
<text x="468" y="274">鍖</text>
<text x="484" y="274">鑚</text>
<text x="500" y="274">陷</text>
<text x="516" y="274">霪</text>
<text x="532" y="274">韲</text>
<text x="548" y="274">餮</text>
<text x="564" y="274">騾</text>
<text x="580" y="274">鬨</text>
<text x="596" y="274">鰔</text>
<text x="612" y="274">鵁</text>
<text x="628" y="274">鹹</text>
<text x="644" y="274">鼬</text>
<text x="20" y="290">祀</text>
<text x="36" y="290">穩</text>
<text x="52" y="290">笵</text>
<text x="68" y="290">簀</text>
<text x="84" y="290">粹</text>
<text x="100" y="290">綛</text>
<text x="116" y="290">繧</text>
<text x="132" y="290">罨</text>
<text x="148" y="290">耨</text>
<text x="164" y="290">脯</text>
<text x="180" y="290">臟</text>
<text x="196" y="290">苡</text>
<text x="212" y="290">莵</text>
<text x="228" y="290">葹</text>
<text x="244" y="290">蕭</text>
<text x="260" y="290">蚌</text>
<text x="276" y="290">蝗</text>
<text x="292" y="290">蠹</text>
<text x="308" y="290">褄</text>
<text x="324" y="290">觀</text>
<text x="340" y="290">諱</text>
<text x="356" y="290">讖</text>
<text x="372" y="290">贅</text>
<text x="388" y="290">踰</text>
<text x="404" y="290">軫</text>
<text x="420" y="290">逅</text>
<text x="436" y="290">邵</text>
<text x="452" y="290">鈞</text>
<text x="468" y="290">鎰</text>
<text x="484" y="290">鑼</text>
<text x="500" y="290">陜</text>
<text x="516" y="290">霰</text>
<text x="532" y="290">竟</text>
<text x="548" y="290">餽</text>
<text x="564" y="290">驕</text>
<text x="580" y="290">鬩</text>
<text x="596" y="290">鰉</text>
<text x="612" y="290">鴿</text>
<text x="628" y="290">鹽</text>
<text x="644" y="290">鼾</text>
<text x="20" y="306">祠</text>
<text x="36" y="306">龝</text>
<text x="52" y="306">笨</text>
<text x="68" y="306">簇</text>
<text x="84" y="306">粽</text>
<text x="100" y="306">綺</text>
<text x="116" y="306">繝</text>
<text x="132" y="306">罩</text>
<text x="148" y="306">耿</text>
<text x="164" y="306">腋</text>
<text x="180" y="306">臠</text>
<text x="196" y="306">苣</text>
<text x="212" y="306">荳</text>
<text x="228" y="306">萵</text>
<text x="244" y="306">薔</text>
<text x="260" y="306">蚶</text>
<text x="276" y="306">蝨</text>
<text x="292" y="306">蠧</text>
<text x="308" y="306">褌</text>
<text x="324" y="306">觚</text>
<text x="340" y="306">謔</text>
<text x="356" y="306">讙</text>
<text x="372" y="306">贊</text>
<text x="388" y="306">踴</text>
<text x="404" y="306">軾</text>
<text x="420" y="306">迹</text>
<text x="436" y="306">郢</text>
<text x="452" y="306">釿</text>
<text x="468" y="306">鎬</text>
<text x="484" y="306">鑾</text>
<text x="500" y="306">陞</text>
<text x="516" y="306">霹</text>
<text x="532" y="306">韶</text>
<text x="548" y="306">餾</text>
<text x="564" y="306">驍</text>
<text x="580" y="306">鬪</text>
<text x="596" y="306">鰓</text>
<text x="612" y="306">鴾</text>
<text x="628" y="306">麁</text>
<text x="644" y="306">齊</text>
<text x="20" y="322">祗</text>
<text x="36" y="322">穰</text>
<text x="52" y="322">笶</text>
<text x="68" y="322">簓</text>
<text x="84" y="322">糀</text>
<text x="100" y="322">綮</text>
<text x="116" y="322">繖</text>
<text x="132" y="322">罧</text>
<text x="148" y="322">耻</text>
<text x="164" y="322">隋</text>
<text x="180" y="322">臧</text>
<text x="196" y="322">苟</text>
<text x="212" y="322">荵</text>
<text x="228" y="322">蓊</text>
<text x="244" y="322">薛</text>
<text x="260" y="322">蚯</text>
<text x="276" y="322">蝮</text>
<text x="292" y="322">蠻</text>
<text x="308" y="322">褊</text>
<text x="324" y="322">觜</text>
<text x="340" y="322">諠</text>
<text x="356" y="322">讚</text>
<text x="372" y="322">贇</text>
<text x="388" y="322">蹊</text>
<text x="404" y="322">輊</text>
<text x="420" y="322">迺</text>
<text x="436" y="322">郤</text>
<text x="452" y="322">鈔</text>
<text x="468" y="322">鎭</text>
<text x="484" y="322">钁</text>
<text x="500" y="322">陝</text>
<text x="516" y="322">霽</text>
<text x="532" y="322">韵</text>
<text x="548" y="322">饂</text>
<text x="564" y="322">驛</text>
<text x="580" y="322">鬮</text>
<text x="596" y="322">鰌</text>
<text x="612" y="322">鵆</text>
<text x="628" y="322">麈</text>
<text x="644" y="322">齒</text>
<text x="20" y="338">祟</text>
<text x="36" y="338">穹</text>
<text x="52" y="338">筐</text>
<text x="68" y="338">篳</text>
<text x="84" y="338">糅</text>
<text x="100" y="338">綣</text>
<text x="116" y="338">繞</text>
<text x="132" y="338">罸</text>
<text x="148" y="338">聊</text>
<text x="164" y="338">腆</text>
<text x="180" y="338">臺</text>
<text x="196" y="338">苒</text>
<text x="212" y="338">莠</text>
<text x="228" y="338">葢</text>
<text x="244" y="338">藪</text>
<text x="260" y="338">蛄</text>
<text x="276" y="338">蝙</text>
<text x="292" y="338">衄</text>
<text x="308" y="338">褓</text>
<text x="324" y="338">觝</text>
<text x="340" y="338">諢</text>
<text x="356" y="338">谺</text>
<text x="372" y="338">贏</text>
<text x="388" y="338">蹇</text>
<text x="404" y="338">輅</text>
<text x="420" y="338">逑</text>
<text x="436" y="338">扈</text>
<text x="452" y="338">鈬</text>
<text x="468" y="338">鎔</text>
<text x="484" y="338">鑿</text>
<text x="500" y="338">陟</text>
<text x="516" y="338">霾</text>
<text x="532" y="338">頏</text>
<text x="548" y="338">饉</text>
<text x="564" y="338">驗</text>
<text x="580" y="338">鬯</text>
<text x="596" y="338">鰆</text>
<text x="612" y="338">鵈</text>
<text x="628" y="338">麋</text>
<text x="644" y="338">齔</text>
<text x="20" y="354">祚</text>
<text x="36" y="354">穽</text>
<text x="52" y="354">筺</text>
<text x="68" y="354">篷</text>
<text x="84" y="354">糂</text>
<text x="100" y="354">綵</text>
<text x="116" y="354">繙</text>
<text x="132" y="354">羂</text>
<text x="148" y="354">聆</text>
<text x="164" y="354">脾</text>
<text x="180" y="354">臻</text>
<text x="196" y="354">苴</text>
<text x="212" y="354">莉</text>
<text x="228" y="354">蒹</text>
<text x="244" y="354">薇</text>
<text x="260" y="354">蛆</text>
<text x="276" y="354">蝓</text>
<text x="292" y="354">衂</text>
<text x="308" y="354">襃</text>
<text x="324" y="354">觧</text>
<text x="340" y="354">諷</text>
<text x="356" y="354">豁</text>
<text x="372" y="354">贍</text>
<text x="388" y="354">蹉</text>
<text x="404" y="354">輕</text>
<text x="420" y="354">逕</text>
<text x="436" y="354">郛</text>
<text x="452" y="354">鈕</text>
<text x="468" y="354">鎹</text>
<text x="484" y="354">閂</text>
<text x="500" y="354">陦</text>
<text x="516" y="354">靄</text>
<text x="532" y="354">頌</text>
<text x="548" y="354">饅</text>
<text x="564" y="354">驟</text>
<text x="580" y="354">鬲</text>
<text x="596" y="354">鰈</text>
<text x="612" y="354">鵝</text>
<text x="628" y="354">麌</text>
<text x="644" y="354">齣</text>
<text x="20" y="370">祕</text>
<text x="36" y="370">窈</text>
<text x="52" y="370">笄</text>
<text x="68" y="370">簗</text>
<text x="84" y="370">糘</text>
<text x="100" y="370">緇</text>
<text x="116" y="370">繚</text>
<text x="132" y="370">羆</text>
<text x="148" y="370">聒</text>
<text x="164" y="370">腓</text>
<text x="180" y="370">臾</text>
<text x="196" y="370">苳</text>
<text x="212" y="370">莨</text>
<text x="228" y="370">蒿</text>
<text x="244" y="370">薜</text>
<text x="260" y="370">蚰</text>
<text x="276" y="370">蝣</text>
<text x="292" y="370">衒</text>
<text x="308" y="370">褞</text>
<text x="324" y="370">觴</text>
<text x="340" y="370">諞</text>
<text x="356" y="370">谿</text>
<text x="372" y="370">贐</text>
<text x="388" y="370">蹌</text>
<text x="404" y="370">輒</text>
<text x="420" y="370">逡</text>
<text x="436" y="370">鄂</text>
<text x="452" y="370">鈑</text>
<text x="468" y="370">鏖</text>
<text x="484" y="370">閇</text>
<text x="500" y="370">陲</text>
<text x="516" y="370">靆</text>
<text x="532" y="370">頸</text>
<text x="548" y="370">饐</text>
<text x="564" y="370">驢</text>
<text x="580" y="370">魄</text>
<text x="596" y="370">鰒</text>
<text x="612" y="370">鵞</text>
<text x="628" y="370">麒</text>
<text x="644" y="370">齟</text>
<text x="20" y="386">祓</text>
<text x="36" y="386">窗</text>
<text x="52" y="386">筍</text>
<text x="68" y="386">簍</text>
<text x="84" y="386">糒</text>
<text x="100" y="386">綽</text>
<text x="116" y="386">繹</text>
<text x="132" y="386">羃</text>
<text x="148" y="386">聘</text>
<text x="164" y="386">腑</text>
<text x="180" y="386">舁</text>
<text x="196" y="386">苺</text>
<text x="212" y="386">菴</text>
<text x="228" y="386">蒟</text>
<text x="244" y="386">蕷</text>
<text x="260" y="386">蛉</text>
<text x="276" y="386">蝪</text>
<text x="292" y="386">衙</text>
<text x="308" y="386">褥</text>
<text x="324" y="386">觸</text>
<text x="340" y="386">諛</text>
<text x="356" y="386">豈</text>
<text x="372" y="386">齎</text>
<text x="388" y="386">蹐</text>
<text x="404" y="386">輙</text>
<text x="420" y="386">逍</text>
<text x="436" y="386">鄒</text>
<text x="452" y="386">鉞</text>
<text x="468" y="386">鏗</text>
<text x="484" y="386">閊</text>
<text x="500" y="386">陬</text>
<text x="516" y="386">靈</text>
<text x="532" y="386">頤</text>
<text x="548" y="386">饋</text>
<text x="564" y="386">驥</text>
<text x="580" y="386">魃</text>
<text x="596" y="386">鰊</text>
<text x="612" y="386">鵤</text>
<text x="628" y="386">麕</text>
<text x="644" y="386">齠</text>
<text x="20" y="402">祺</text>
<text x="36" y="402">窕</text>
<text x="52" y="402">笋</text>
<text x="68" y="402">篶</text>
<text x="84" y="402">糜</text>
<text x="100" y="402">綫</text>
<text x="116" y="402">繪</text>
<text x="132" y="402">羈</text>
<text x="148" y="402">聚</text>
<text x="164" y="402">胼</text>
<text x="180" y="402">舂</text>
<text x="196" y="402">莓</text>
<text x="212" y="402">萓</text>
<text x="228" y="402">蓙</text>
<text x="244" y="402">蕾</text>
<text x="260" y="402">蠣</text>
<text x="276" y="402">蠅</text>
<text x="292" y="402">衞</text>
<text x="308" y="402">褪</text>
<text x="324" y="402">訖</text>
<text x="340" y="402">謌</text>
<text x="356" y="402">豌</text>
<text x="372" y="402">贓</text>
<text x="388" y="402">蹈</text>
<text x="404" y="402">輓</text>
<text x="420" y="402">逞</text>
<text x="436" y="402">鄙</text>
<text x="452" y="402">鉗</text>
<text x="468" y="402">鏨</text>
<text x="484" y="402">閔</text>
<text x="500" y="402">隍</text>
<text x="516" y="402">靂</text>
<text x="532" y="402">頡</text>
<text x="548" y="402">饑</text>
<text x="564" y="402">驤</text>
<text x="580" y="402">魏</text>
<text x="596" y="402">鰄</text>
<text x="612" y="402">鵑</text>
<text x="628" y="402">麑</text>
<text x="644" y="402">齡</text>
<text x="20" y="418">祿</text>
<text x="36" y="418">窘</text>
<text x="52" y="418">筌</text>
<text x="68" y="418">簣</text>
<text x="84" y="418">糢</text>
<text x="100" y="418">總</text>
<text x="116" y="418">繩</text>
<text x="132" y="418">羇</text>
<text x="148" y="418">聟</text>
<text x="164" y="418">腱</text>
<text x="180" y="418">舅</text>
<text x="196" y="418">范</text>
<text x="212" y="418">菫</text>
<text x="228" y="418">蓍</text>
<text x="244" y="418">薐</text>
<text x="260" y="418">蚫</text>
<text x="276" y="418">螢</text>
<text x="292" y="418">衢</text>
<text x="308" y="418">褫</text>
<text x="324" y="418">訐</text>
<text x="340" y="418">謇</text>
<text x="356" y="418">豎</text>
<text x="372" y="418">賍</text>
<text x="388" y="418">蹙</text>
<text x="404" y="418">輜</text>
<text x="420" y="418">逖</text>
<text x="436" y="418">鄲</text>
<text x="452" y="418">鉅</text>
<text x="468" y="418">鏥</text>
<text x="484" y="418">閖</text>
<text x="500" y="418">隘</text>
<text x="516" y="418">靉</text>
<text x="532" y="418">頷</text>
<text x="548" y="418">饒</text>
<text x="564" y="418">驩</text>
<text x="580" y="418">魍</text>
<text x="596" y="418">鰮</text>
<text x="612" y="418">鵐</text>
<text x="628" y="418">麝</text>
<text x="644" y="418">齦</text>
<text x="20" y="434">禊</text>
<text x="36" y="434">窖</text>
<text x="52" y="434">筅</text>
<text x="68" y="434">簧</text>
<text x="84" y="434">鬻</text>
<text x="100" y="434">綢</text>
<text x="116" y="434">繼</text>
<text x="132" y="434">羌</text>
<text x="148" y="434">聢</text>
<text x="164" y="434">腮</text>
<text x="180" y="434">與</text>
<text x="196" y="434">苻</text>
<text x="212" y="434">菎</text>
<text x="228" y="434">蒻</text>
<text x="244" y="434">藉</text>
<text x="260" y="434">蛔</text>
<text x="276" y="434">螟</text>
<text x="292" y="434">衫</text>
<text x="308" y="434">襁</text>
<text x="324" y="434">訌</text>
<text x="340" y="434">謚</text>
<text x="356" y="434">豐</text>
<text x="372" y="434">贔</text>
<text x="388" y="434">蹤</text>
<text x="404" y="434">輟</text>
<text x="420" y="434">逋</text>
<text x="436" y="434">鄰</text>
<text x="452" y="434">鉉</text>
<text x="468" y="434">鏘</text>
<text x="484" y="434">閘</text>
<text x="500" y="434">隕</text>
<text x="516" y="434">靜</text>
<text x="532" y="434">頽</text>
<text x="548" y="434">饌</text>
<text x="564" y="434">驫</text>
<text x="580" y="434">魎</text>
<text x="596" y="434">鰛</text>
<text x="612" y="434">鵙</text>
<text x="628" y="434">麥</text>
<text x="644" y="434">齧</text>
<text x="20" y="450">禝</text>
<text x="36" y="450">窩</text>
<text x="52" y="450">筵</text>
<text x="68" y="450">簪</text>
<text x="84" y="450">糯</text>
<text x="100" y="450">綯</text>
<text x="116" y="450">繻</text>
<text x="132" y="450">羔</text>
<text x="148" y="450">聨</text>
<text x="164" y="450">腥</text>
<text x="180" y="450">舊</text>
<text x="196" y="450">苹</text>
<text x="212" y="450">菽</text>
<text x="228" y="450">蓚</text>
<text x="244" y="450">薺</text>
<text x="260" y="450">蛞</text>
<text x="276" y="450">螂</text>
<text x="292" y="450">袁</text>
<text x="308" y="450">襄</text>
<text x="324" y="450">訛</text>
<text x="340" y="450">諡</text>
<text x="356" y="450">豕</text>
<text x="372" y="450">贖</text>
<text x="388" y="450">蹠</text>
<text x="404" y="450">輛</text>
<text x="420" y="450">逧</text>
<text x="436" y="450">酊</text>
<text x="452" y="450">鉤</text>
<text x="468" y="450">鏃</text>
<text x="484" y="450">閙</text>
<text x="500" y="450">隗</text>
<text x="516" y="450">靠</text>
<text x="532" y="450">顆</text>
<text x="548" y="450">饕</text>
<text x="564" y="450">驪</text>
<text x="580" y="450">魑</text>
<text x="596" y="450">鰥</text>
<text x="612" y="450">鵲</text>
<text x="628" y="450">麩</text>
<text x="644" y="450">齬</text>
<text x="20" y="466">禧</text>
<text x="36" y="466">竈</text>
<text x="52" y="466">筥</text>
<text x="68" y="466">簟</text>
<text x="84" y="466">糲</text>
<text x="100" y="466">緜</text>
<text x="116" y="466">纃</text>
<text x="132" y="466">羝</text>
<text x="148" y="466">聳</text>
<text x="164" y="466">腦</text>
<text x="180" y="466">舍</text>
<text x="196" y="466">苞</text>
<text x="212" y="466">萃</text>
<text x="228" y="466">蓐</text>
<text x="244" y="466">藏</text>
<text x="260" y="466">蛩</text>
<text x="276" y="466">螯</text>
<text x="292" y="466">衾</text>
<text x="308" y="466">褻</text>
<text x="324" y="466">訝</text>
<text x="340" y="466">謖</text>
<text x="356" y="466">豢</text>
<text x="372" y="466">赧</text>
<text x="388" y="466">蹣</text>
<text x="404" y="466">輌</text>
<text x="420" y="466">逶</text>
<text x="436" y="466">酖</text>
<text x="452" y="466">鉈</text>
<text x="468" y="466">鏝</text>
<text x="484" y="466">閠</text>
<text x="500" y="466">險</text>
<text x="516" y="466">靤</text>
<text x="532" y="466">顏</text>
<text x="548" y="466">馗</text>
<text x="564" y="466">骭</text>
<text x="580" y="466">魘</text>
<text x="596" y="466">鰤</text>
<text x="612" y="466">鶉</text>
<text x="628" y="466">麸</text>
<text x="644" y="466">齪</text>
<text x="20" y="482">齋</text>
<text x="36" y="482">窰</text>
<text x="52" y="482">筴</text>
<text x="68" y="482">簷</text>
<text x="84" y="482">糴</text>
<text x="100" y="482">綸</text>
<text x="116" y="482">緕</text>
<text x="132" y="482">羚</text>
<text x="148" y="482">聲</text>
<text x="164" y="482">腴</text>
<text x="180" y="482">舐</text>
<text x="196" y="482">茆</text>
<text x="212" y="482">菘</text>
<text x="228" y="482">蓁</text>
<text x="244" y="482">薹</text>
<text x="260" y="482">蛬</text>
<text x="276" y="482">蟋</text>
<text x="292" y="482">袞</text>
<text x="308" y="482">褶</text>
<text x="324" y="482">訥</text>
<text x="340" y="482">謐</text>
<text x="356" y="482">豬</text>
<text x="372" y="482">赭</text>
<text x="388" y="482">蹕</text>
<text x="404" y="482">輦</text>
<text x="420" y="482">逵</text>
<text x="436" y="482">酘</text>
<text x="452" y="482">銕</text>
<text x="468" y="482">鏐</text>
<text x="484" y="482">閨</text>
<text x="500" y="482">隧</text>
<text x="516" y="482">靦</text>
<text x="532" y="482">顋</text>
<text x="548" y="482">馘</text>
<text x="564" y="482">骰</text>
<text x="580" y="482">魴</text>
<text x="596" y="482">鰡</text>
<text x="612" y="482">鶇</text>
<text x="628" y="482">麪</text>
<text x="644" y="482">齷</text>
<text x="20" y="498">禪</text>
<text x="36" y="498">窶</text>
<text x="52" y="498">筧</text>
<text x="68" y="498">簫</text>
<text x="84" y="498">糶</text>
<text x="100" y="498">綟</text>
<text x="116" y="498">繽</text>
<text x="132" y="498">羣</text>
<text x="148" y="498">聰</text>
<text x="164" y="498">膃</text>
<text x="180" y="498">舖</text>
<text x="196" y="498">苜</text>
<text x="212" y="498">萋</text>
<text x="228" y="498">蓆</text>
<text x="244" y="498">藐</text>
<text x="260" y="498">蛟</text>
<text x="276" y="498">螽</text>
<text x="292" y="498">衵</text>
<text x="308" y="498">褸</text>
<text x="324" y="498">訶</text>
<text x="340" y="498">謗</text>
<text x="356" y="498">豸</text>
<text x="372" y="498">赱</text>
<text x="388" y="498">蹶</text>
<text x="404" y="498">輳</text>
<text x="420" y="498">逹</text>
<text x="436" y="498">酣</text>
<text x="452" y="498">鈿</text>
<text x="468" y="498">鏈</text>
<text x="484" y="498">閧</text>
<text x="500" y="498">隱</text>
<text x="516" y="498">靨</text>
<text x="532" y="498">顫</text>
<text x="548" y="498">馥</text>
<text x="564" y="498">骼</text>
<text x="580" y="498">鮓</text>
<text x="596" y="498">鰰</text>
<text x="612" y="498">鶫</text>
<text x="628" y="498">麭</text>
<text x="644" y="498">齲</text>
<text x="20" y="514">禮</text>
<text x="36" y="514">竅</text>
<text x="52" y="514">筰</text>
<text x="68" y="514">簽</text>
<text x="84" y="514">糺</text>
<text x="100" y="514">綰</text>
<text x="116" y="514">辮</text>
<text x="132" y="514">羯</text>
<text x="148" y="514">聶</text>
<text x="164" y="514">膈</text>
<text x="180" y="514">舩</text>
<text x="196" y="514">茉</text>
<text x="212" y="514">菁</text>
<text x="228" y="514">蓖</text>
<text x="244" y="514">藕</text>
<text x="260" y="514">蛛</text>
<text x="276" y="514">蟀</text>
<text x="292" y="514">衽</text>
<text x="308" y="514">襌</text>
<text x="324" y="514">詁</text>
<text x="340" y="514">謠</text>
<text x="356" y="514">豺</text>
<text x="372" y="514">赳</text>
<text x="388" y="514">蹲</text>
<text x="404" y="514">輻</text>
<text x="420" y="514">迸</text>
<text x="436" y="514">酥</text>
<text x="452" y="514">鉋</text>
<text x="468" y="514">鏤</text>
<text x="484" y="514">閭</text>
<text x="500" y="514">隲</text>
<text x="516" y="514">勒</text>
<text x="532" y="514">顯</text>
<text x="548" y="514">馭</text>
<text x="564" y="514">髀</text>
<text x="580" y="514">鮃</text>
<text x="596" y="514">鱇</text>
<text x="612" y="514">鵯</text>
<text x="628" y="514">靡</text>
<text x="644" y="514">齶</text>
<text x="20" y="530">禳</text>
<text x="36" y="530">竄</text>
<text x="52" y="530">筱</text>
<text x="68" y="530">籌</text>
<text x="84" y="530">紆</text>
<text x="100" y="530">緘</text>
<text x="116" y="530">繿</text>
<text x="132" y="530">羲</text>
<text x="148" y="530">聹</text>
<text x="164" y="530">膊</text>
<text x="180" y="530">舫</text>
<text x="196" y="530">苙</text>
<text x="212" y="530">菷</text>
<text x="228" y="530">蒡</text>
<text x="244" y="530">藝</text>
<text x="260" y="530">蛯</text>
<text x="276" y="530">蟐</text>
<text x="292" y="530">袵</text>
<text x="308" y="530">褝</text>
<text x="324" y="530">詛</text>
<text x="340" y="530">謳</text>
<text x="356" y="530">貂</text>
<text x="372" y="530">趁</text>
<text x="388" y="530">蹼</text>
<text x="404" y="530">輹</text>
<text x="420" y="530">遏</text>
<text x="436" y="530">酩</text>
<text x="452" y="530">鉐</text>
<text x="468" y="530">鐚</text>
<text x="484" y="530">閼</text>
<text x="500" y="530">隰</text>
<text x="516" y="530">靫</text>
<text x="532" y="530">顰</text>
<text x="548" y="530">馮</text>
<text x="564" y="530">髏</text>
<text x="580" y="530">鮑</text>
<text x="596" y="530">鰲</text>
<text x="612" y="530">鵺</text>
<text x="628" y="530">黌</text>
<text x="644" y="530">龕</text>
<text x="20" y="546">禹</text>
<text x="36" y="546">窿</text>
<text x="52" y="546">筬</text>
<text x="68" y="546">籃</text>
<text x="84" y="546">紂</text>
<text x="100" y="546">緝</text>
<text x="116" y="546">纈</text>
<text x="132" y="546">羹</text>
<text x="148" y="546">聽</text>
<text x="164" y="546">膀</text>
<text x="180" y="546">舸</text>
<text x="196" y="546">茵</text>
<text x="212" y="546">萇</text>
<text x="228" y="546">蔡</text>
<text x="244" y="546">藥</text>
<text x="260" y="546">蜒</text>
<text x="276" y="546">雖</text>
<text x="292" y="546">衲</text>
<text x="308" y="546">襠</text>
<text x="324" y="546">詒</text>
<text x="340" y="546">鞫</text>
<text x="356" y="546">貉</text>
<text x="372" y="546">趙</text>
<text x="388" y="546">躁</text>
<text x="404" y="546">轅</text>
<text x="420" y="546">遐</text>
<text x="436" y="546">酳</text>
<text x="452" y="546">銜</text>
<text x="468" y="546">鐔</text>
<text x="484" y="546">閻</text>
<text x="500" y="546">隴</text>
<text x="516" y="546">靱</text>
<text x="532" y="546">顱</text>
<text x="548" y="546">馼</text>
<text x="564" y="546">髑</text>
<text x="580" y="546">鮖</text>
<text x="596" y="546">鱆</text>
<text x="612" y="546">鶚</text>
<text x="628" y="546">黎</text>
<text x="644" y="546">龜</text>
<text x="20" y="562">禺</text>
<text x="36" y="562">邃</text>
<text x="52" y="562">筮</text>
<text x="68" y="562">籔</text>
<text x="84" y="562">紜</text>
<text x="100" y="562">緤</text>
<text x="116" y="562">纉</text>
<text x="132" y="562">羮</text>
<text x="148" y="562">聿</text>
<text x="164" y="562">膂</text>
<text x="180" y="562">舳</text>
<text x="196" y="562">茴</text>
<text x="212" y="562">菠</text>
<text x="228" y="562">蓿</text>
<text x="244" y="562">藜</text>
<text x="260" y="562">蜆</text>
<text x="276" y="562">螫</text>
<text x="292" y="562">袂</text>
<text x="308" y="562">襞</text>
<text x="324" y="562">詆</text>
<text x="340" y="562">謦</text>
<text x="356" y="562">貅</text>
<text x="372" y="562">跂</text>
<text x="388" y="562">躇</text>
<text x="404" y="562">轂</text>
<text x="420" y="562">遑</text>
<text x="436" y="562">酲</text>
<text x="452" y="562">銖</text>
<text x="468" y="562">鐓</text>
<text x="484" y="562">閹</text>
<text x="500" y="562">隶</text>
<text x="516" y="562">靹</text>
<text x="532" y="562">顴</text>
<text x="548" y="562">駟</text>
<text x="564" y="562">髓</text>
<text x="580" y="562">鮗</text>
<text x="596" y="562">鰾</text>
<text x="612" y="562">鶤</text>
<text x="628" y="562">黏</text>
<text x="644" y="562">龠</text>
<text x="20" y="578">秉</text>
<text x="36" y="578">竇</text>
<text x="52" y="578">箝</text>
<text x="68" y="578">籏</text>
<text x="84" y="578">紕</text>
<text x="100" y="578">緞</text>
<text x="116" y="578">續</text>
<text x="132" y="578">羶</text>
<text x="148" y="578">肄</text>
<text x="164" y="578">膠</text>
<text x="180" y="578">艀</text>
<text x="196" y="578">茖</text>
<text x="212" y="578">菲</text>
<text x="228" y="578">蓴</text>
<text x="244" y="578">藹</text>
<text x="260" y="578">蜈</text>
<text x="276" y="578">蟄</text>
<text x="292" y="578">袗</text>
<text x="308" y="578">襦</text>
<text x="324" y="578">詈</text>
<text x="340" y="578">謫</text>
<text x="356" y="578">貊</text>
<text x="372" y="578">趾</text>
<text x="388" y="578">躅</text>
<text x="404" y="578">輾</text>
<text x="420" y="578">遒</text>
<text x="436" y="578">醋</text>
<text x="452" y="578">銓</text>
<text x="468" y="578">鐃</text>
<text x="484" y="578">閾</text>
<text x="500" y="578">隸</text>
<text x="516" y="578">鞅</text>
<text x="532" y="578">顳</text>
<text x="548" y="578">駛</text>
<text x="564" y="578">體</text>
<text x="580" y="578">鮟</text>
<text x="596" y="578">鱚</text>
<text x="612" y="578">鶩</text>
<text x="628" y="578">黐</text>
<text x="644" y="578">堯</text>
<text x="20" y="594">秕</text>
<text x="36" y="594">竊</text>
<text x="52" y="594">箘</text>
<text x="68" y="594">籀</text>
<text x="84" y="594">紊</text>
<text x="100" y="594">緲</text>
<text x="116" y="594">纒</text>
<text x="132" y="594">羸</text>
<text x="148" y="594">肆</text>
<text x="164" y="594">膕</text>
<text x="180" y="594">艙</text>
<text x="196" y="594">茲</text>
<text x="212" y="594">萍</text>
<text x="228" y="594">蔗</text>
<text x="244" y="594">蘊</text>
<text x="260" y="594">蜀</text>
<text x="276" y="594">螳</text>
<text x="292" y="594">袒</text>
<text x="308" y="594">襤</text>
<text x="324" y="594">詼</text>
<text x="340" y="594">謾</text>
<text x="356" y="594">貍</text>
<text x="372" y="594">趺</text>
<text x="388" y="594">躄</text>
<text x="404" y="594">轌</text>
<text x="420" y="594">逎</text>
<text x="436" y="594">醉</text>
<text x="452" y="594">銛</text>
<text x="468" y="594">鐇</text>
<text x="484" y="594">闊</text>
<text x="500" y="594">隹</text>
<text x="516" y="594">靼</text>
<text x="532" y="594">颪</text>
<text x="548" y="594">駝</text>
<text x="564" y="594">髞</text>
<text x="580" y="594">鮠</text>
<text x="596" y="594">鱠</text>
<text x="612" y="594">鶲</text>
<text x="628" y="594">黔</text>
<text x="644" y="594">槇</text>
<text x="20" y="610">秧</text>
<text x="36" y="610">竍</text>
<text x="52" y="610">箟</text>
<text x="68" y="610">籐</text>
<text x="84" y="610">絅</text>
<text x="100" y="610">緡</text>
<text x="116" y="610">纐</text>
<text x="132" y="610">譱</text>
<text x="148" y="610">肅</text>
<text x="164" y="610">膤</text>
<text x="180" y="610">艘</text>
<text x="196" y="610">茱</text>
<text x="212" y="610">萢</text>
<text x="228" y="610">蔘</text>
<text x="244" y="610">蘓</text>
<text x="260" y="610">蜃</text>
<text x="276" y="610">蟇</text>
<text x="292" y="610">袮</text>
<text x="308" y="610">襭</text>
<text x="324" y="610">詭</text>
<text x="340" y="610">謨</text>
<text x="356" y="610">貎</text>
<text x="372" y="610">跏</text>
<text x="388" y="610">躋</text>
<text x="404" y="610">轉</text>
<text x="420" y="610">遉</text>
<text x="436" y="610">醂</text>
<text x="452" y="610">鉚</text>
<text x="468" y="610">鐐</text>
<text x="484" y="610">濶</text>
<text x="500" y="610">雎</text>
<text x="516" y="610">鞁</text>
<text x="532" y="610">颯</text>
<text x="548" y="610">駘</text>
<text x="564" y="610">髟</text>
<text x="580" y="610">鮨</text>
<text x="596" y="610">鱧</text>
<text x="612" y="610">鷄</text>
<text x="628" y="610">黜</text>
<text x="644" y="610">遙</text>
<text x="20" y="626">秬</text>
<text x="36" y="626">竏</text>
<text x="52" y="626">箍</text>
<text x="68" y="626">籘</text>
<text x="84" y="626">絋</text>
<text x="100" y="626">縅</text>
<text x="116" y="626">纓</text>
<text x="132" y="626">翅</text>
<text x="148" y="626">肛</text>
<text x="164" y="626">膣</text>
<text x="180" y="626">艝</text>
<text x="196" y="626">荀</text>
<text x="212" y="626">萠</text>
<text x="228" y="626">蔬</text>
<text x="244" y="626">蘋</text>
<text x="260" y="626">蛻</text>
<text x="276" y="626">蟆</text>
<text x="292" y="626">袙</text>
<text x="308" y="626">襪</text>
<text x="324" y="626">詬</text>
<text x="340" y="626">譁</text>
<text x="356" y="626">貔</text>
<text x="372" y="626">跚</text>
<text x="388" y="626">躊</text>
<text x="404" y="626">轆</text>
<text x="420" y="626">逾</text>
<text x="436" y="626">醢</text>
<text x="452" y="626">鋏</text>
<text x="468" y="626">鐶</text>
<text x="484" y="626">闃</text>
<text x="500" y="626">雋</text>
<text x="516" y="626">靺</text>
<text x="532" y="626">颱</text>
<text x="548" y="626">駑</text>
<text x="564" y="626">髢</text>
<text x="580" y="626">鮴</text>
<text x="596" y="626">鱶</text>
<text x="612" y="626">鷁</text>
<text x="628" y="626">點</text>
<text x="644" y="626">瑤</text>
<text x="20" y="642">秡</text>
<text x="36" y="642">竕</text>
<text x="52" y="642">箜</text>
<text x="68" y="642">籟</text>
<text x="84" y="642">紮</text>
<text x="100" y="642">縊</text>
<text x="116" y="642">纔</text>
<text x="132" y="642">翆</text>
<text x="148" y="642">肓</text>
<text x="164" y="642">腟</text>
<text x="180" y="642">艚</text>
<text x="196" y="642">茹</text>
<text x="212" y="642">莽</text>
<text x="228" y="642">蔟</text>
<text x="244" y="642">藾</text>
<text x="260" y="642">蜑</text>
<text x="276" y="642">螻</text>
<text x="292" y="642">袢</text>
<text x="308" y="642">襯</text>
<text x="324" y="642">詢</text>
<text x="340" y="642">譌</text>
<text x="356" y="642">豼</text>
<text x="372" y="642">跖</text>
<text x="388" y="642">躓</text>
<text x="404" y="642">轎</text>
<text x="420" y="642">遖</text>
<text x="436" y="642">醫</text>
<text x="452" y="642">銹</text>
<text x="468" y="642">鐫</text>
<text x="484" y="642">闍</text>
<text x="500" y="642">雉</text>
<text x="516" y="642">鞆</text>
<text x="532" y="642">颶</text>
<text x="548" y="642">駭</text>
<text x="564" y="642">髣</text>
<text x="580" y="642">鯀</text>
<text x="596" y="642">鱸</text>
<text x="612" y="642">鶻</text>
<text x="628" y="642">黝</text>
<text x="644" y="642">凜</text>
<text x="20" y="658">秣</text>
<text x="36" y="658">竓</text>
<text x="52" y="658">箚</text>
<text x="68" y="658">籤</text>
<text x="84" y="658">紲</text>
<text x="100" y="658">縣</text>
<text x="116" y="658">纖</text>
<text x="132" y="658">翊</text>
<text x="148" y="658">肚</text>
<text x="164" y="658">膓</text>
<text x="180" y="658">艟</text>
<text x="196" y="658">荐</text>
<text x="212" y="658">萸</text>
<text x="228" y="658">蔕</text>
<text x="244" y="658">藺</text>
<text x="260" y="658">蜉</text>
<text x="276" y="658">蟯</text>
<text x="292" y="658">袍</text>
<text x="308" y="658">襴</text>
<text x="324" y="658">誅</text>
<text x="340" y="658">譏</text>
<text x="356" y="658">貘</text>
<text x="372" y="658">跌</text>
<text x="388" y="658">躑</text>
<text x="404" y="658">轗</text>
<text x="420" y="658">遘</text>
<text x="436" y="658">醯</text>
<text x="452" y="658">銷</text>
<text x="468" y="658">鐵</text>
<text x="484" y="658">闌</text>
<text x="500" y="658">雍</text>
<text x="516" y="658">鞋</text>
<text x="532" y="658">飄</text>
<text x="548" y="658">駮</text>
<text x="564" y="658">髦</text>
<text x="580" y="658">鯊</text>
<text x="596" y="658">鳧</text>
<text x="612" y="658">鶸</text>
<text x="628" y="658">黠</text>
<text x="644" y="658">熙</text>
</g>
</svg>
