<?xml version="1.0" standalone="no"?>

<svg width="680" height="680" viewBox="0 0 680  680" version="1.1" xmlns="http://www.w3.org/2000/svg" xmlns:xlink="http://www.w3.org/1999/xlink">
<rect x="7.5" y="7.5" width="665" height="665" fill="#FFFFFF" stroke="#424242" stroke-width="1"/>
<rect x="12.5" y="12.5" width="655" height="655" fill="#FFFFFF" stroke="#424242" stroke-width="1"/>
<g fill="#424242" font-family="'Hiragino Kaku Gothic ProN', 'Hiragino Sans', 'Noto Sans JP', 'Meiryo', sans-serif" font-size="14">
<text x="20" y="34">刋</text>
<text x="36" y="34">勵</text>
<text x="52" y="34">叟</text>
<text x="68" y="34">咫</text>
<text x="84" y="34">嗚</text>
<text x="100" y="34">囎</text>
<text x="116" y="34">埒</text>
<text x="132" y="34">壽</text>
<text x="148" y="34">娉</text>
<text x="164" y="34">孳</text>
<text x="180" y="34">屬</text>
<text x="196" y="34">嵬</text>
<text x="212" y="34">并</text>
<text x="228" y="34">弯</text>
<text x="244" y="34">怦</text>
<text x="260" y="34">愆</text>
<text x="276" y="34">憔</text>
<text x="292" y="34">扁</text>
<text x="308" y="34">挾</text>
<text x="324" y="34">撓</text>
<text x="340" y="34">敖</text>
<text x="356" y="34">晝</text>
<text x="372" y="34">朷</text>
<text x="388" y="34">桎</text>
<text x="404" y="34">椥</text>
<text x="420" y="34">榧</text>
<text x="436" y="34">檍</text>
<text x="452" y="34">歸</text>
<text x="468" y="34">沚</text>
<text x="484" y="34">涎</text>
<text x="500" y="34">渤</text>
<text x="516" y="34">潯</text>
<text x="532" y="34">瀾</text>
<text x="548" y="34">燎</text>
<text x="564" y="34">狠</text>
<text x="580" y="34">琺</text>
<text x="596" y="34">甼</text>
<text x="612" y="34">痾</text>
<text x="628" y="34">皎</text>
<text x="644" y="34">睹</text>
<text x="20" y="50">刔</text>
<text x="36" y="50">勸</text>
<text x="52" y="50">曼</text>
<text x="68" y="50">哂</text>
<text x="84" y="50">嗟</text>
<text x="100" y="50">囑</text>
<text x="116" y="50">埓</text>
<text x="132" y="50">夂</text>
<text x="148" y="50">娚</text>
<text x="164" y="50">孵</text>
<text x="180" y="50">屮</text>
<text x="196" y="50">嵳</text>
<text x="212" y="50">幺</text>
<text x="228" y="50">彑</text>
<text x="244" y="50">怏</text>
<text x="260" y="50">惶</text>
<text x="276" y="50">憚</text>
<text x="292" y="50">扎</text>
<text x="308" y="50">捍</text>
<text x="324" y="50">撥</text>
<text x="340" y="50">敕</text>
<text x="356" y="50">晤</text>
<text x="372" y="50">杆</text>
<text x="388" y="50">梳</text>
<text x="404" y="50">棹</text>
<text x="420" y="50">樮</text>
<text x="436" y="50">檠</text>
<text x="452" y="50">歹</text>
<text x="468" y="50">沁</text>
<text x="484" y="50">涕</text>
<text x="500" y="50">滿</text>
<text x="516" y="50">潛</text>
<text x="532" y="50">瀲</text>
<text x="548" y="50">燠</text>
<text x="564" y="50">狡</text>
<text x="580" y="50">瑕</text>
<text x="596" y="50">畄</text>
<text x="612" y="50">痿</text>
<text x="628" y="50">皖</text>
<text x="644" y="50">瞎</text>
<text x="20" y="66">刎</text>
<text x="36" y="66">勹</text>
<text x="52" y="66">燮</text>
<text x="68" y="66">咤</text>
<text x="84" y="66">嗄</text>
<text x="100" y="66">囓</text>
<text x="116" y="66">堊</text>
<text x="132" y="66">夊</text>
<text x="148" y="66">婀</text>
<text x="164" y="66">學</text>
<text x="180" y="66">乢</text>
<text x="196" y="66">嵶</text>
<text x="212" y="66">麼</text>
<text x="228" y="66">彖</text>
<text x="244" y="66">怺</text>
<text x="260" y="66">惷</text>
<text x="276" y="66">憊</text>
<text x="292" y="66">扞</text>
<text x="308" y="66">搜</text>
<text x="324" y="66">撩</text>
<text x="340" y="66">敍</text>
<text x="356" y="66">晧</text>
<text x="372" y="66">杞</text>
<text x="388" y="66">栫</text>
<text x="404" y="66">棠</text>
<text x="420" y="66">榑</text>
<text x="436" y="66">檄</text>
<text x="452" y="66">歿</text>
<text x="468" y="66">沛</text>
<text x="484" y="66">濤</text>
<text x="500" y="66">渝</text>
<text x="516" y="66">濳</text>
<text x="532" y="66">灑</text>
<text x="548" y="66">燬</text>
<text x="564" y="66">狹</text>
<text x="580" y="66">琿</text>
<text x="596" y="66">畍</text>
<text x="612" y="66">痼</text>
<text x="628" y="66">皓</text>
<text x="644" y="66">瞋</text>
<text x="20" y="82">刧</text>
<text x="36" y="82">匆</text>
<text x="52" y="82">叮</text>
<text x="68" y="82">咾</text>
<text x="84" y="82">嗜</text>
<text x="100" y="82">囗</text>
<text x="116" y="82">埖</text>
<text x="132" y="82">夐</text>
<text x="148" y="82">婬</text>
<text x="164" y="82">斈</text>
<text x="180" y="82">屶</text>
<text x="196" y="82">嶇</text>
<text x="212" y="82">广</text>
<text x="228" y="82">彗</text>
<text x="244" y="82">恚</text>
<text x="260" y="82">愀</text>
<text x="276" y="82">憑</text>
<text x="292" y="82">扣</text>
<text x="308" y="82">捏</text>
<text x="324" y="82">撈</text>
<text x="340" y="82">敘</text>
<text x="356" y="82">晨</text>
<text x="372" y="82">杠</text>
<text x="388" y="82">桙</text>
<text x="404" y="82">棯</text>
<text x="420" y="82">榠</text>
<text x="436" y="82">檢</text>
<text x="452" y="82">殀</text>
<text x="468" y="82">汾</text>
<text x="484" y="82">涅</text>
<text x="500" y="82">游</text>
<text x="516" y="82">潭</text>
<text x="532" y="82">灣</text>
<text x="548" y="82">燧</text>
<text x="564" y="82">狷</text>
<text x="580" y="82">瑟</text>
<text x="596" y="82">畊</text>
<text x="612" y="82">瘁</text>
<text x="628" y="82">皙</text>
<text x="644" y="82">瞑</text>
<text x="20" y="98">刪</text>
<text x="36" y="98">匈</text>
<text x="52" y="98">叨</text>
<text x="68" y="98">咼</text>
<text x="84" y="98">嗤</text>
<text x="100" y="98">囮</text>
<text x="116" y="98">埣</text>
<text x="132" y="98">夛</text>
<text x="148" y="98">婉</text>
<text x="164" y="98">孺</text>
<text x="180" y="98">屹</text>
<text x="196" y="98">嶄</text>
<text x="212" y="98">庠</text>
<text x="228" y="98">彡</text>
<text x="244" y="98">恁</text>
<text x="260" y="98">惴</text>
<text x="276" y="98">憫</text>
<text x="292" y="98">扛</text>
<text x="308" y="98">掖</text>
<text x="324" y="98">撼</text>
<text x="340" y="98">敞</text>
<text x="356" y="98">晟</text>
<text x="372" y="98">杙</text>
<text x="388" y="98">档</text>
<text x="404" y="98">椨</text>
<text x="420" y="98">榜</text>
<text x="436" y="98">檣</text>
<text x="452" y="98">殄</text>
<text x="468" y="98">汨</text>
<text x="484" y="98">淹</text>
<text x="500" y="98">溂</text>
<text x="516" y="98">澂</text>
<text x="532" y="98">炙</text>
<text x="548" y="98">燵</text>
<text x="564" y="98">倏</text>
<text x="580" y="98">瑙</text>
<text x="596" y="98">畉</text>
<text x="612" y="98">痰</text>
<text x="628" y="98">皚</text>
<text x="644" y="98">瞠</text>
<text x="20" y="114">刮</text>
<text x="36" y="114">甸</text>
<text x="52" y="114">叭</text>
<text x="68" y="114">哘</text>
<text x="84" y="114">嗔</text>
<text x="100" y="114">囹</text>
<text x="116" y="114">堋</text>
<text x="132" y="114">梦</text>
<text x="148" y="114">娵</text>
<text x="164" y="114">宀</text>
<text x="180" y="114">岌</text>
<text x="196" y="114">嶂</text>
<text x="212" y="114">廁</text>
<text x="228" y="114">彭</text>
<text x="244" y="114">恪</text>
<text x="260" y="114">惺</text>
<text x="276" y="114">憮</text>
<text x="292" y="114">扠</text>
<text x="308" y="114">掎</text>
<text x="324" y="114">據</text>
<text x="340" y="114">敝</text>
<text x="356" y="114">晢</text>
<text x="372" y="114">杣</text>
<text x="388" y="114">桷</text>
<text x="404" y="114">椪</text>
<text x="420" y="114">榕</text>
<text x="436" y="114">檗</text>
<text x="452" y="114">殃</text>
<text x="468" y="114">汳</text>
<text x="484" y="114">渕</text>
<text x="500" y="114">溪</text>
<text x="516" y="114">潼</text>
<text x="532" y="114">炒</text>
<text x="548" y="114">燼</text>
<text x="564" y="114">猗</text>
<text x="580" y="114">瑁</text>
<text x="596" y="114">畛</text>
<text x="612" y="114">痺</text>
<text x="628" y="114">皰</text>
<text x="644" y="114">瞞</text>
<text x="20" y="130">刳</text>
<text x="36" y="130">匍</text>
<text x="52" y="130">叺</text>
<text x="68" y="130">哥</text>
<text x="84" y="130">嘔</text>
<text x="100" y="130">圀</text>
<text x="116" y="130">堙</text>
<text x="132" y="130">夥</text>
<text x="148" y="130">娶</text>
<text x="164" y="130">它</text>
<text x="180" y="130">岑</text>
<text x="196" y="130">嶢</text>
<text x="212" y="130">廂</text>
<text x="228" y="130">彳</text>
<text x="244" y="130">恷</text>
<text x="260" y="130">愃</text>
<text x="276" y="130">懌</text>
<text x="292" y="130">扨</text>
<text x="308" y="130">掀</text>
<text x="324" y="130">擒</text>
<text x="340" y="130">敲</text>
<text x="356" y="130">晰</text>
<text x="372" y="130">杤</text>
<text x="388" y="130">桿</text>
<text x="404" y="130">椚</text>
<text x="420" y="130">榴</text>
<text x="436" y="130">蘗</text>
<text x="452" y="130">殍</text>
<text x="468" y="130">沒</text>
<text x="484" y="130">渊</text>
<text x="500" y="130">溘</text>
<text x="516" y="130">潘</text>
<text x="532" y="130">炯</text>
<text x="548" y="130">燹</text>
<text x="564" y="130">猊</text>
<text x="580" y="130">瑜</text>
<text x="596" y="130">畆</text>
<text x="612" y="130">痲</text>
<text x="628" y="130">皴</text>
<text x="644" y="130">瞰</text>
<text x="20" y="146">剏</text>
<text x="36" y="146">匐</text>
<text x="52" y="146">吁</text>
<text x="68" y="146">哦</text>
<text x="84" y="146">嗷</text>
<text x="100" y="146">囿</text>
<text x="116" y="146">堝</text>
<text x="132" y="146">夬</text>
<text x="148" y="146">婢</text>
<text x="164" y="146">宦</text>
<text x="180" y="146">岔</text>
<text x="196" y="146">嶝</text>
<text x="212" y="146">廈</text>
<text x="228" y="146">彷</text>
<text x="244" y="146">恟</text>
<text x="260" y="146">愡</text>
<text x="276" y="146">懊</text>
<text x="292" y="146">扼</text>
<text x="308" y="146">掫</text>
<text x="324" y="146">擅</text>
<text x="340" y="146">數</text>
<text x="356" y="146">暃</text>
<text x="372" y="146">枉</text>
<text x="388" y="146">梟</text>
<text x="404" y="146">椣</text>
<text x="420" y="146">槞</text>
<text x="436" y="146">檻</text>
<text x="452" y="146">殘</text>
<text x="468" y="146">沐</text>
<text x="484" y="146">涵</text>
<text x="500" y="146">滉</text>
<text x="516" y="146">澎</text>
<text x="532" y="146">烱</text>
<text x="548" y="146">燿</text>
<text x="564" y="146">猜</text>
<text x="580" y="146">瑩</text>
<text x="596" y="146">畚</text>
<text x="612" y="146">痳</text>
<text x="628" y="146">皸</text>
<text x="644" y="146">瞶</text>
<text x="20" y="162">剄</text>
<text x="36" y="162">匏</text>
<text x="52" y="162">吽</text>
<text x="68" y="162">唏</text>
<text x="84" y="162">嘖</text>
<text x="100" y="162">圄</text>
<text x="116" y="162">塲</text>
<text x="132" y="162">夭</text>
<text x="148" y="162">婪</text>
<text x="164" y="162">宸</text>
<text x="180" y="162">妛</text>
<text x="196" y="162">嶬</text>
<text x="212" y="162">廐</text>
<text x="228" y="162">徃</text>
<text x="244" y="162">恊</text>
<text x="260" y="162">惻</text>
<text x="276" y="162">應</text>
<text x="292" y="162">抂</text>
<text x="308" y="162">捶</text>
<text x="324" y="162">擇</text>
<text x="340" y="162">斂</text>
<text x="356" y="162">暈</text>
<text x="372" y="162">杰</text>
<text x="388" y="162">梏</text>
<text x="404" y="162">椡</text>
<text x="420" y="162">槨</text>
<text x="436" y="162">櫃</text>
<text x="452" y="162">殕</text>
<text x="468" y="162">泄</text>
<text x="484" y="162">淇</text>
<text x="500" y="162">溷</text>
<text x="516" y="162">澑</text>
<text x="532" y="162">炬</text>
<text x="548" y="162">爍</text>
<text x="564" y="162">猖</text>
<text x="580" y="162">瑰</text>
<text x="596" y="162">畩</text>
<text x="612" y="162">瘋</text>
<text x="628" y="162">皹</text>
<text x="644" y="162">瞹</text>
<text x="20" y="178">剋</text>
<text x="36" y="178">匕</text>
<text x="52" y="178">呀</text>
<text x="68" y="178">唔</text>
<text x="84" y="178">嗾</text>
<text x="100" y="178">圉</text>
<text x="116" y="178">堡</text>
<text x="132" y="178">夲</text>
<text x="148" y="178">媚</text>
<text x="164" y="178">寃</text>
<text x="180" y="178">岫</text>
<text x="196" y="178">嶮</text>
<text x="212" y="178">廏</text>
<text x="228" y="178">徂</text>
<text x="244" y="178">恆</text>
<text x="260" y="178">惱</text>
<text x="276" y="178">懷</text>
<text x="292" y="178">抉</text>
<text x="308" y="178">掣</text>
<text x="324" y="178">撻</text>
<text x="340" y="178">斃</text>
<text x="356" y="178">暎</text>
<text x="372" y="178">枩</text>
<text x="388" y="178">梭</text>
<text x="404" y="178">棆</text>
<text x="420" y="178">樂</text>
<text x="436" y="178">櫂</text>
<text x="452" y="178">殞</text>
<text x="468" y="178">泱</text>
<text x="484" y="178">淦</text>
<text x="500" y="178">滓</text>
<text x="516" y="178">濂</text>
<text x="532" y="178">炸</text>
<text x="548" y="178">爐</text>
<text x="564" y="178">猝</text>
<text x="580" y="178">瑣</text>
<text x="596" y="178">畤</text>
<text x="612" y="178">瘉</text>
<text x="628" y="178">皺</text>
<text x="644" y="178">瞿</text>
<text x="20" y="194">剌</text>
<text x="36" y="194">匚</text>
<text x="52" y="194">听</text>
<text x="68" y="194">哽</text>
<text x="84" y="194">嗽</text>
<text x="100" y="194">圈</text>
<text x="116" y="194">塢</text>
<text x="132" y="194">夸</text>
<text x="148" y="194">媼</text>
<text x="164" y="194">寇</text>
<text x="180" y="194">岻</text>
<text x="196" y="194">嶽</text>
<text x="212" y="194">廖</text>
<text x="228" y="194">彿</text>
<text x="244" y="194">恍</text>
<text x="260" y="194">愍</text>
<text x="276" y="194">懈</text>
<text x="292" y="194">找</text>
<text x="308" y="194">掏</text>
<text x="324" y="194">擘</text>
<text x="340" y="194">變</text>
<text x="356" y="194">暉</text>
<text x="372" y="194">杼</text>
<text x="388" y="194">梔</text>
<text x="404" y="194">楹</text>
<text x="420" y="194">樛</text>
<text x="436" y="194">檸</text>
<text x="452" y="194">殤</text>
<text x="468" y="194">泓</text>
<text x="484" y="194">涸</text>
<text x="500" y="194">溽</text>
<text x="516" y="194">潦</text>
<text x="532" y="194">炳</text>
<text x="548" y="194">爛</text>
<text x="564" y="194">猴</text>
<text x="580" y="194">瑪</text>
<text x="596" y="194">畧</text>
<text x="612" y="194">瘟</text>
<text x="628" y="194">盂</text>
<text x="644" y="194">瞼</text>
<text x="20" y="210">剞</text>
<text x="36" y="210">匣</text>
<text x="52" y="210">吭</text>
<text x="68" y="210">哮</text>
<text x="84" y="210">嘛</text>
<text x="100" y="210">國</text>
<text x="116" y="210">塋</text>
<text x="132" y="210">夾</text>
<text x="148" y="210">媾</text>
<text x="164" y="210">寉</text>
<text x="180" y="210">岶</text>
<text x="196" y="210">嶐</text>
<text x="212" y="210">廣</text>
<text x="228" y="210">徊</text>
<text x="244" y="210">恃</text>
<text x="260" y="210">愎</text>
<text x="276" y="210">懃</text>
<text x="292" y="210">抒</text>
<text x="308" y="210">掉</text>
<text x="324" y="210">擂</text>
<text x="340" y="210">斛</text>
<text x="356" y="210">暄</text>
<text x="372" y="210">杪</text>
<text x="388" y="210">條</text>
<text x="404" y="210">楜</text>
<text x="420" y="210">槿</text>
<text x="436" y="210">檳</text>
<text x="452" y="210">殪</text>
<text x="468" y="210">沽</text>
<text x="484" y="210">淆</text>
<text x="500" y="210">溯</text>
<text x="516" y="210">澳</text>
<text x="532" y="210">炮</text>
<text x="548" y="210">爨</text>
<text x="564" y="210">猯</text>
<text x="580" y="210">瑶</text>
<text x="596" y="210">畫</text>
<text x="612" y="210">瘧</text>
<text x="628" y="210">盍</text>
<text x="644" y="210">瞽</text>
<text x="20" y="226">剔</text>
<text x="36" y="226">匯</text>
<text x="52" y="226">吼</text>
<text x="68" y="226">哭</text>
<text x="84" y="226">嗹</text>
<text x="100" y="226">圍</text>
<text x="116" y="226">塰</text>
<text x="132" y="226">竒</text>
<text x="148" y="226">嫋</text>
<text x="164" y="226">寔</text>
<text x="180" y="226">岼</text>
<text x="196" y="226">嶷</text>
<text x="212" y="226">廝</text>
<text x="228" y="226">很</text>
<text x="244" y="226">恤</text>
<text x="260" y="226">慇</text>
<text x="276" y="226">懆</text>
<text x="292" y="226">抓</text>
<text x="308" y="226">掟</text>
<text x="324" y="226">擱</text>
<text x="340" y="226">斟</text>
<text x="356" y="226">暘</text>
<text x="372" y="226">枌</text>
<text x="388" y="226">梛</text>
<text x="404" y="226">楸</text>
<text x="420" y="226">權</text>
<text x="436" y="226">檬</text>
<text x="452" y="226">殫</text>
<text x="468" y="226">泗</text>
<text x="484" y="226">淬</text>
<text x="500" y="226">滄</text>
<text x="516" y="226">澣</text>
<text x="532" y="226">烟</text>
<text x="548" y="226">爭</text>
<text x="564" y="226">猩</text>
<text x="580" y="226">瑾</text>
<text x="596" y="226">畭</text>
<text x="612" y="226">瘠</text>
<text x="628" y="226">盖</text>
<text x="644" y="226">瞻</text>
<text x="20" y="242">剪</text>
<text x="36" y="242">匱</text>
<text x="52" y="242">吮</text>
<text x="68" y="242">哢</text>
<text x="84" y="242">噎</text>
<text x="100" y="242">圓</text>
<text x="116" y="242">塒</text>
<text x="132" y="242">奕</text>
<text x="148" y="242">嫂</text>
<text x="164" y="242">寐</text>
<text x="180" y="242">岷</text>
<text x="196" y="242">嶼</text>
<text x="212" y="242">廚</text>
<text x="228" y="242">徑</text>
<text x="244" y="242">恂</text>
<text x="260" y="242">愾</text>
<text x="276" y="242">憺</text>
<text x="292" y="242">抖</text>
<text x="308" y="242">掵</text>
<text x="324" y="242">擧</text>
<text x="340" y="242">斫</text>
<text x="356" y="242">暝</text>
<text x="372" y="242">枋</text>
<text x="388" y="242">梃</text>
<text x="404" y="242">楫</text>
<text x="420" y="242">槹</text>
<text x="436" y="242">櫞</text>
<text x="452" y="242">殯</text>
<text x="468" y="242">泅</text>
<text x="484" y="242">淞</text>
<text x="500" y="242">溲</text>
<text x="516" y="242">澡</text>
<text x="532" y="242">烋</text>
<text x="548" y="242">爬</text>
<text x="564" y="242">猥</text>
<text x="580" y="242">璋</text>
<text x="596" y="242">畸</text>
<text x="612" y="242">瘡</text>
<text x="628" y="242">盒</text>
<text x="644" y="242">矇</text>
<text x="20" y="258">剴</text>
<text x="36" y="258">匳</text>
<text x="52" y="258">吶</text>
<text x="68" y="258">唹</text>
<text x="84" y="258">噐</text>
<text x="100" y="258">團</text>
<text x="116" y="258">堽</text>
<text x="132" y="258">奐</text>
<text x="148" y="258">媽</text>
<text x="164" y="258">寤</text>
<text x="180" y="258">峅</text>
<text x="196" y="258">巉</text>
<text x="212" y="258">廛</text>
<text x="228" y="258">徇</text>
<text x="244" y="258">恬</text>
<text x="260" y="258">愨</text>
<text x="276" y="258">懋</text>
<text x="292" y="258">拔</text>
<text x="308" y="258">捫</text>
<text x="324" y="258">舉</text>
<text x="340" y="258">斷</text>
<text x="356" y="258">曁</text>
<text x="372" y="258">枦</text>
<text x="388" y="258">檮</text>
<text x="404" y="258">楔</text>
<text x="420" y="258">槲</text>
<text x="436" y="258">櫑</text>
<text x="452" y="258">殲</text>
<text x="468" y="258">泝</text>
<text x="484" y="258">淌</text>
<text x="500" y="258">滔</text>
<text x="516" y="258">澤</text>
<text x="532" y="258">烝</text>
<text x="548" y="258">爰</text>
<text x="564" y="258">猾</text>
<text x="580" y="258">璞</text>
<text x="596" y="258">當</text>
<text x="612" y="258">瘢</text>
<text x="628" y="258">盞</text>
<text x="644" y="258">矍</text>
<text x="20" y="274">剩</text>
<text x="36" y="274">匸</text>
<text x="52" y="274">吩</text>
<text x="68" y="274">啀</text>
<text x="84" y="274">營</text>
<text x="100" y="274">圖</text>
<text x="116" y="274">塹</text>
<text x="132" y="274">奎</text>
<text x="148" y="274">嫣</text>
<text x="164" y="274">實</text>
<text x="180" y="274">岾</text>
<text x="196" y="274">巍</text>
<text x="212" y="274">廢</text>
<text x="228" y="274">從</text>
<text x="244" y="274">恫</text>
<text x="260" y="274">愧</text>
<text x="276" y="274">罹</text>
<text x="292" y="274">抃</text>
<text x="308" y="274">捩</text>
<text x="324" y="274">擠</text>
<text x="340" y="274">旃</text>
<text x="356" y="274">暹</text>
<text x="372" y="274">枡</text>
<text x="388" y="274">梹</text>
<text x="404" y="274">楾</text>
<text x="420" y="274">槧</text>
<text x="436" y="274">櫟</text>
<text x="452" y="274">殱</text>
<text x="468" y="274">沮</text>
<text x="484" y="274">淨</text>
<text x="500" y="274">滕</text>
<text x="516" y="274">澹</text>
<text x="532" y="274">烙</text>
<text x="548" y="274">爲</text>
<text x="564" y="274">獎</text>
<text x="580" y="274">瓊</text>
<text x="596" y="274">疆</text>
<text x="612" y="274">瘤</text>
<text x="628" y="274">盡</text>
<text x="644" y="274">矗</text>
<text x="20" y="290">剳</text>
<text x="36" y="290">區</text>
<text x="52" y="290">吝</text>
<text x="68" y="290">啣</text>
<text x="84" y="290">嘴</text>
<text x="100" y="290">嗇</text>
<text x="116" y="290">墅</text>
<text x="132" y="290">奚</text>
<text x="148" y="290">嫗</text>
<text x="164" y="290">寢</text>
<text x="180" y="290">峇</text>
<text x="196" y="290">巓</text>
<text x="212" y="290">廡</text>
<text x="228" y="290">徙</text>
<text x="244" y="290">恙</text>
<text x="260" y="290">慊</text>
<text x="276" y="290">懍</text>
<text x="292" y="290">抔</text>
<text x="308" y="290">掾</text>
<text x="324" y="290">擡</text>
<text x="340" y="290">旆</text>
<text x="356" y="290">曉</text>
<text x="372" y="290">枅</text>
<text x="388" y="290">桴</text>
<text x="404" y="290">楮</text>
<text x="420" y="290">樅</text>
<text x="436" y="290">檪</text>
<text x="452" y="290">殳</text>
<text x="468" y="290">沱</text>
<text x="484" y="290">淒</text>
<text x="500" y="290">溏</text>
<text x="516" y="290">濆</text>
<text x="532" y="290">焉</text>
<text x="548" y="290">爻</text>
<text x="564" y="290">獏</text>
<text x="580" y="290">瓏</text>
<text x="596" y="290">疇</text>
<text x="612" y="290">瘴</text>
<text x="628" y="290">盥</text>
<text x="644" y="290">矚</text>
<text x="20" y="306">剿</text>
<text x="36" y="306">卆</text>
<text x="52" y="306">呎</text>
<text x="68" y="306">啌</text>
<text x="84" y="306">嘶</text>
<text x="100" y="306">圜</text>
<text x="116" y="306">墹</text>
<text x="132" y="306">奘</text>
<text x="148" y="306">嫦</text>
<text x="164" y="306">寞</text>
<text x="180" y="306">峙</text>
<text x="196" y="306">巒</text>
<text x="212" y="306">廨</text>
<text x="228" y="306">徘</text>
<text x="244" y="306">悁</text>
<text x="260" y="306">愿</text>
<text x="276" y="306">懦</text>
<text x="292" y="306">拗</text>
<text x="308" y="306">揩</text>
<text x="324" y="306">抬</text>
<text x="340" y="306">旁</text>
<text x="356" y="306">暾</text>
<text x="372" y="306">枷</text>
<text x="388" y="306">梵</text>
<text x="404" y="306">椹</text>
<text x="420" y="306">榱</text>
<text x="436" y="306">櫚</text>
<text x="452" y="306">殷</text>
<text x="468" y="306">沾</text>
<text x="484" y="306">淅</text>
<text x="500" y="306">溥</text>
<text x="516" y="306">澪</text>
<text x="532" y="306">烽</text>
<text x="548" y="306">爼</text>
<text x="564" y="306">默</text>
<text x="580" y="306">瓔</text>
<text x="596" y="306">畴</text>
<text x="612" y="306">瘰</text>
<text x="628" y="306">盧</text>
<text x="644" y="306">矜</text>
<text x="20" y="322">剽</text>
<text x="36" y="322">卅</text>
<text x="52" y="322">咏</text>
<text x="68" y="322">售</text>
<text x="84" y="322">嘸</text>
<text x="100" y="322">圦</text>
<text x="116" y="322">墟</text>
<text x="132" y="322">奢</text>
<text x="148" y="322">嫩</text>
<text x="164" y="322">寥</text>
<text x="180" y="322">峩</text>
<text x="196" y="322">巖</text>
<text x="212" y="322">廩</text>
<text x="228" y="322">徠</text>
<text x="244" y="322">悍</text>
<text x="260" y="322">愼</text>
<text x="276" y="322">懣</text>
<text x="292" y="322">拑</text>
<text x="308" y="322">揀</text>
<text x="324" y="322">擣</text>
<text x="340" y="322">旄</text>
<text x="356" y="322">暼</text>
<text x="372" y="322">柯</text>
<text x="388" y="322">梠</text>
<text x="404" y="322">楴</text>
<text x="420" y="322">樞</text>
<text x="436" y="322">櫪</text>
<text x="452" y="322">殼</text>
<text x="468" y="322">沺</text>
<text x="484" y="322">淺</text>
<text x="500" y="322">滂</text>
<text x="516" y="322">濟</text>
<text x="532" y="322">焜</text>
<text x="548" y="322">爿</text>
<text x="564" y="322">獗</text>
<text x="580" y="322">珱</text>
<text x="596" y="322">疊</text>
<text x="612" y="322">瘻</text>
<text x="628" y="322">盪</text>
<text x="644" y="322">矣</text>
<text x="20" y="338">劍</text>
<text x="36" y="338">丗</text>
<text x="52" y="338">呵</text>
<text x="68" y="338">啜</text>
<text x="84" y="338">噫</text>
<text x="100" y="338">圷</text>
<text x="116" y="338">墫</text>
<text x="132" y="338">奠</text>
<text x="148" y="338">嫖</text>
<text x="164" y="338">寫</text>
<text x="180" y="338">峽</text>
<text x="196" y="338">巛</text>
<text x="212" y="338">廬</text>
<text x="228" y="338">徨</text>
<text x="244" y="338">悃</text>
<text x="260" y="338">愬</text>
<text x="276" y="338">懶</text>
<text x="292" y="338">抻</text>
<text x="308" y="338">揆</text>
<text x="324" y="338">擯</text>
<text x="340" y="338">旌</text>
<text x="356" y="338">曄</text>
<text x="372" y="338">枴</text>
<text x="388" y="338">梺</text>
<text x="404" y="338">椽</text>
<text x="420" y="338">槭</text>
<text x="436" y="338">櫻</text>
<text x="452" y="338">毆</text>
<text x="468" y="338">泛</text>
<text x="484" y="338">淙</text>
<text x="500" y="338">溟</text>
<text x="516" y="338">濕</text>
<text x="532" y="338">焙</text>
<text x="548" y="338">牀</text>
<text x="564" y="338">獪</text>
<text x="580" y="338">瓠</text>
<text x="596" y="338">疉</text>
<text x="612" y="338">癇</text>
<text x="628" y="338">蘯</text>
<text x="644" y="338">矮</text>
<text x="20" y="354">劔</text>
<text x="36" y="354">卉</text>
<text x="52" y="354">咎</text>
<text x="68" y="354">啅</text>
<text x="84" y="354">噤</text>
<text x="100" y="354">圸</text>
<text x="116" y="354">墺</text>
<text x="132" y="354">奧</text>
<text x="148" y="354">嫺</text>
<text x="164" y="354">寰</text>
<text x="180" y="354">峺</text>
<text x="196" y="354">巫</text>
<text x="212" y="354">廱</text>
<text x="228" y="354">徭</text>
<text x="244" y="354">悚</text>
<text x="260" y="354">愴</text>
<text x="276" y="354">懺</text>
<text x="292" y="354">拏</text>
<text x="308" y="354">揣</text>
<text x="324" y="354">攬</text>
<text x="340" y="354">旒</text>
<text x="356" y="354">暸</text>
<text x="372" y="354">柬</text>
<text x="388" y="354">椏</text>
<text x="404" y="354">楙</text>
<text x="420" y="354">樔</text>
<text x="436" y="354">欅</text>
<text x="452" y="354">毋</text>
<text x="468" y="354">泯</text>
<text x="484" y="354">淤</text>
<text x="500" y="354">潁</text>
<text x="516" y="354">濬</text>
<text x="532" y="354">煥</text>
<text x="548" y="354">牆</text>
<text x="564" y="354">獨</text>
<text x="580" y="354">瓣</text>
<text x="596" y="354">疂</text>
<text x="612" y="354">癈</text>
<text x="628" y="354">盻</text>
<text x="644" y="354">矼</text>
<text x="20" y="370">劒</text>
<text x="36" y="370">卍</text>
<text x="52" y="370">呟</text>
<text x="68" y="370">啖</text>
<text x="84" y="370">嘯</text>
<text x="100" y="370">坎</text>
<text x="116" y="370">壞</text>
<text x="132" y="370">奬</text>
<text x="148" y="370">嫻</text>
<text x="164" y="370">寶</text>
<text x="180" y="370">峭</text>
<text x="196" y="370">巵</text>
<text x="212" y="370">廳</text>
<text x="228" y="370">徼</text>
<text x="244" y="370">悄</text>
<text x="260" y="370">愽</text>
<text x="276" y="370">懴</text>
<text x="292" y="370">拿</text>
<text x="308" y="370">揉</text>
<text x="324" y="370">擶</text>
<text x="340" y="370">旛</text>
<text x="356" y="370">曚</text>
<text x="372" y="370">枳</text>
<text x="388" y="370">梍</text>
<text x="404" y="370">椰</text>
<text x="420" y="370">槫</text>
<text x="436" y="370">蘖</text>
<text x="452" y="370">毓</text>
<text x="468" y="370">泙</text>
<text x="484" y="370">淕</text>
<text x="500" y="370">漑</text>
<text x="516" y="370">濔</text>
<text x="532" y="370">煕</text>
<text x="548" y="370">牋</text>
<text x="564" y="370">獰</text>
<text x="580" y="370">瓧</text>
<text x="596" y="370">疔</text>
<text x="612" y="370">癆</text>
<text x="628" y="370">眈</text>
<text x="644" y="370">砌</text>
<text x="20" y="386">剱</text>
<text x="36" y="386">凖</text>
<text x="52" y="386">呱</text>
<text x="68" y="386">啗</text>
<text x="84" y="386">噬</text>
<text x="100" y="386">圻</text>
<text x="116" y="386">墻</text>
<text x="132" y="386">奩</text>
<text x="148" y="386">嬌</text>
<text x="164" y="386">寳</text>
<text x="180" y="386">嶌</text>
<text x="196" y="386">帋</text>
<text x="212" y="386">廰</text>
<text x="228" y="386">忖</text>
<text x="244" y="386">悛</text>
<text x="260" y="386">慂</text>
<text x="276" y="386">懿</text>
<text x="292" y="386">拆</text>
<text x="308" y="386">插</text>
<text x="324" y="386">擴</text>
<text x="340" y="386">旙</text>
<text x="356" y="386">曠</text>
<text x="372" y="386">柩</text>
<text x="388" y="386">桾</text>
<text x="404" y="386">楡</text>
<text x="420" y="386">樊</text>
<text x="436" y="386">櫺</text>
<text x="452" y="386">毟</text>
<text x="468" y="386">泪</text>
<text x="484" y="386">淪</text>
<text x="500" y="386">灌</text>
<text x="516" y="386">濘</text>
<text x="532" y="386">熈</text>
<text x="548" y="386">牘</text>
<text x="564" y="386">獸</text>
<text x="580" y="386">瓩</text>
<text x="596" y="386">疚</text>
<text x="612" y="386">癜</text>
<text x="628" y="386">眇</text>
<text x="644" y="386">砒</text>
<text x="20" y="402">劈</text>
<text x="36" y="402">卞</text>
<text x="52" y="402">呷</text>
<text x="68" y="402">唸</text>
<text x="84" y="402">噪</text>
<text x="100" y="402">址</text>
<text x="116" y="402">墸</text>
<text x="132" y="402">奸</text>
<text x="148" y="402">嬋</text>
<text x="164" y="402">尅</text>
<text x="180" y="402">峪</text>
<text x="196" y="402">帚</text>
<text x="212" y="402">廴</text>
<text x="228" y="402">忻</text>
<text x="244" y="402">悖</text>
<text x="260" y="402">慳</text>
<text x="276" y="402">懽</text>
<text x="292" y="402">擔</text>
<text x="308" y="402">揶</text>
<text x="324" y="402">擲</text>
<text x="340" y="402">无</text>
<text x="356" y="402">昿</text>
<text x="372" y="402">枸</text>
<text x="388" y="402">椁</text>
<text x="404" y="402">楞</text>
<text x="420" y="402">樒</text>
<text x="436" y="402">欒</text>
<text x="452" y="402">毬</text>
<text x="468" y="402">洟</text>
<text x="484" y="402">淮</text>
<text x="500" y="402">滬</text>
<text x="516" y="402">濱</text>
<text x="532" y="402">煦</text>
<text x="548" y="402">牴</text>
<text x="564" y="402">獵</text>
<text x="580" y="402">瓮</text>
<text x="596" y="402">疝</text>
<text x="612" y="402">癘</text>
<text x="628" y="402">眄</text>
<text x="644" y="402">礦</text>
<text x="20" y="418">劑</text>
<text x="36" y="418">卩</text>
<text x="52" y="418">呰</text>
<text x="68" y="418">唳</text>
<text x="84" y="418">嚆</text>
<text x="100" y="418">坏</text>
<text x="116" y="418">墮</text>
<text x="132" y="418">妁</text>
<text x="148" y="418">嬖</text>
<text x="164" y="418">將</text>
<text x="180" y="418">崋</text>
<text x="196" y="418">帙</text>
<text x="212" y="418">廸</text>
<text x="228" y="418">忤</text>
<text x="244" y="418">悗</text>
<text x="260" y="418">慷</text>
<text x="276" y="418">懼</text>
<text x="292" y="418">拈</text>
<text x="308" y="418">揄</text>
<text x="324" y="418">擺</text>
<text x="340" y="418">旡</text>
<text x="356" y="418">曦</text>
<text x="372" y="418">柤</text>
<text x="388" y="418">棊</text>
<text x="404" y="418">楝</text>
<text x="420" y="418">櫁</text>
<text x="436" y="418">欖</text>
<text x="452" y="418">毫</text>
<text x="468" y="418">衍</text>
<text x="484" y="418">渭</text>
<text x="500" y="418">滸</text>
<text x="516" y="418">濮</text>
<text x="532" y="418">煢</text>
<text x="548" y="418">牾</text>
<text x="564" y="418">獻</text>
<text x="580" y="418">瓲</text>
<text x="596" y="418">疥</text>
<text x="612" y="418">癡</text>
<text x="628" y="418">眩</text>
<text x="644" y="418">砠</text>
<text x="20" y="434">辨</text>
<text x="36" y="434">卮</text>
<text x="52" y="434">咒</text>
<text x="68" y="434">啝</text>
<text x="84" y="434">嚀</text>
<text x="100" y="434">坩</text>
<text x="116" y="434">壅</text>
<text x="132" y="434">妝</text>
<text x="148" y="434">嬲</text>
<text x="164" y="434">專</text>
<text x="180" y="434">崕</text>
<text x="196" y="434">帑</text>
<text x="212" y="434">廾</text>
<text x="228" y="434">忸</text>
<text x="244" y="434">悒</text>
<text x="260" y="434">慘</text>
<text x="276" y="434">懾</text>
<text x="292" y="434">拜</text>
<text x="308" y="434">搖</text>
<text x="324" y="434">攀</text>
<text x="340" y="434">旱</text>
<text x="356" y="434">曩</text>
<text x="372" y="434">柞</text>
<text x="388" y="434">椈</text>
<text x="404" y="434">榁</text>
<text x="420" y="434">樣</text>
<text x="436" y="434">欟</text>
<text x="452" y="434">毳</text>
<text x="468" y="434">洶</text>
<text x="484" y="434">湮</text>
<text x="500" y="434">滾</text>
<text x="516" y="434">濛</text>
<text x="532" y="434">煌</text>
<text x="548" y="434">犂</text>
<text x="564" y="434">獺</text>
<text x="580" y="434">瓰</text>
<text x="596" y="434">疣</text>
<text x="612" y="434">癢</text>
<text x="628" y="434">眤</text>
<text x="644" y="434">礪</text>
<text x="20" y="450">辧</text>
<text x="36" y="450">夘</text>
<text x="52" y="450">呻</text>
<text x="68" y="450">喙</text>
<text x="84" y="450">嚊</text>
<text x="100" y="450">埀</text>
<text x="116" y="450">壓</text>
<text x="132" y="450">佞</text>
<text x="148" y="450">嫐</text>
<text x="164" y="450">對</text>
<text x="180" y="450">崗</text>
<text x="196" y="450">帛</text>
<text x="212" y="450">弃</text>
<text x="228" y="450">忱</text>
<text x="244" y="450">悧</text>
<text x="260" y="450">慙</text>
<text x="276" y="450">戀</text>
<text x="292" y="450">拌</text>
<text x="308" y="450">搴</text>
<text x="324" y="450">擽</text>
<text x="340" y="450">杲</text>
<text x="356" y="450">曰</text>
<text x="372" y="450">柝</text>
<text x="388" y="450">棘</text>
<text x="404" y="450">楪</text>
<text x="420" y="450">樓</text>
<text x="436" y="450">欸</text>
<text x="452" y="450">毯</text>
<text x="468" y="450">洫</text>
<text x="484" y="450">渮</text>
<text x="500" y="450">漿</text>
<text x="516" y="450">瀉</text>
<text x="532" y="450">煖</text>
<text x="548" y="450">犁</text>
<text x="564" y="450">珈</text>
<text x="580" y="450">瓱</text>
<text x="596" y="450">痂</text>
<text x="612" y="450">癨</text>
<text x="628" y="450">眞</text>
<text x="644" y="450">硅</text>
<text x="20" y="466">劬</text>
<text x="36" y="466">卻</text>
<text x="52" y="466">咀</text>
<text x="68" y="466">喀</text>
<text x="84" y="466">嚠</text>
<text x="100" y="466">垈</text>
<text x="116" y="466">壑</text>
<text x="132" y="466">侫</text>
<text x="148" y="466">嬪</text>
<text x="164" y="466">尓</text>
<text x="180" y="466">嵜</text>
<text x="196" y="466">帶</text>
<text x="212" y="466">弉</text>
<text x="228" y="466">忝</text>
<text x="244" y="466">悋</text>
<text x="260" y="466">慚</text>
<text x="276" y="466">戈</text>
<text x="292" y="466">拊</text>
<text x="308" y="466">搆</text>
<text x="324" y="466">攘</text>
<text x="340" y="466">昊</text>
<text x="356" y="466">曵</text>
<text x="372" y="466">柢</text>
<text x="388" y="466">椢</text>
<text x="404" y="466">榲</text>
<text x="420" y="466">橄</text>
<text x="436" y="466">欷</text>
<text x="452" y="466">麾</text>
<text x="468" y="466">洽</text>
<text x="484" y="466">渙</text>
<text x="500" y="466">滲</text>
<text x="516" y="466">瀋</text>
<text x="532" y="466">煬</text>
<text x="548" y="466">犇</text>
<text x="564" y="466">玳</text>
<text x="580" y="466">瓸</text>
<text x="596" y="466">疳</text>
<text x="612" y="466">癩</text>
<text x="628" y="466">眥</text>
<text x="644" y="466">碎</text>
<text x="20" y="482">劭</text>
<text x="36" y="482">卷</text>
<text x="52" y="482">呶</text>
<text x="68" y="482">咯</text>
<text x="84" y="482">嚔</text>
<text x="100" y="482">坡</text>
<text x="116" y="482">壗</text>
<text x="132" y="482">妣</text>
<text x="148" y="482">嬶</text>
<text x="164" y="482">尠</text>
<text x="180" y="482">崟</text>
<text x="196" y="482">帷</text>
<text x="212" y="482">彝</text>
<text x="228" y="482">悳</text>
<text x="244" y="482">惡</text>
<text x="260" y="482">慫</text>
<text x="276" y="482">戉</text>
<text x="292" y="482">拂</text>
<text x="308" y="482">搓</text>
<text x="324" y="482">攜</text>
<text x="340" y="482">昃</text>
<text x="356" y="482">曷</text>
<text x="372" y="482">柮</text>
<text x="388" y="482">椦</text>
<text x="404" y="482">榮</text>
<text x="420" y="482">樌</text>
<text x="436" y="482">盜</text>
<text x="452" y="482">氈</text>
<text x="468" y="482">洸</text>
<text x="484" y="482">湲</text>
<text x="500" y="482">漱</text>
<text x="516" y="482">濺</text>
<text x="532" y="482">熏</text>
<text x="548" y="482">犒</text>
<text x="564" y="482">珎</text>
<text x="580" y="482">瓷</text>
<text x="596" y="482">痃</text>
<text x="612" y="482">癪</text>
<text x="628" y="482">眦</text>
<text x="644" y="482">硴</text>
<text x="20" y="498">劼</text>
<text x="36" y="498">厂</text>
<text x="52" y="498">咄</text>
<text x="68" y="498">喊</text>
<text x="84" y="498">嚏</text>
<text x="100" y="498">坿</text>
<text x="116" y="498">壙</text>
<text x="132" y="498">妲</text>
<text x="148" y="498">嬾</text>
<text x="164" y="498">尢</text>
<text x="180" y="498">崛</text>
<text x="196" y="498">幄</text>
<text x="212" y="498">彜</text>
<text x="228" y="498">忿</text>
<text x="244" y="498">悸</text>
<text x="260" y="498">慴</text>
<text x="276" y="498">戍</text>
<text x="292" y="498">拇</text>
<text x="308" y="498">搦</text>
<text x="324" y="498">攅</text>
<text x="340" y="498">旻</text>
<text x="356" y="498">朏</text>
<text x="372" y="498">枹</text>
<text x="388" y="498">棡</text>
<text x="404" y="498">槐</text>
<text x="420" y="498">橲</text>
<text x="436" y="498">欹</text>
<text x="452" y="498">氓</text>
<text x="468" y="498">洙</text>
<text x="484" y="498">湟</text>
<text x="500" y="498">滯</text>
<text x="516" y="498">瀑</text>
<text x="532" y="498">燻</text>
<text x="548" y="498">犖</text>
<text x="564" y="498">玻</text>
<text x="580" y="498">甄</text>
<text x="596" y="498">疵</text>
<text x="612" y="498">癧</text>
<text x="628" y="498">眛</text>
<text x="644" y="498">碆</text>
<text x="20" y="514">劵</text>
<text x="36" y="514">厖</text>
<text x="52" y="514">咐</text>
<text x="68" y="514">喟</text>
<text x="84" y="514">嚥</text>
<text x="100" y="514">垉</text>
<text x="116" y="514">壘</text>
<text x="132" y="514">姆</text>
<text x="148" y="514">孃</text>
<text x="164" y="514">尨</text>
<text x="180" y="514">崑</text>
<text x="196" y="514">幃</text>
<text x="212" y="514">弋</text>
<text x="228" y="514">怡</text>
<text x="244" y="514">惠</text>
<text x="260" y="514">慯</text>
<text x="276" y="514">戌</text>
<text x="292" y="514">抛</text>
<text x="308" y="514">搶</text>
<text x="324" y="514">攤</text>
<text x="340" y="514">杳</text>
<text x="356" y="514">朖</text>
<text x="372" y="514">柎</text>
<text x="388" y="514">椌</text>
<text x="404" y="514">榿</text>
<text x="420" y="514">樶</text>
<text x="436" y="514">飮</text>
<text x="452" y="514">气</text>
<text x="468" y="514">洵</text>
<text x="484" y="514">渾</text>
<text x="500" y="514">漲</text>
<text x="516" y="514">瀁</text>
<text x="532" y="514">熄</text>
<text x="548" y="514">犢</text>
<text x="564" y="514">珀</text>
<text x="580" y="514">甃</text>
<text x="596" y="514">疽</text>
<text x="612" y="514">癬</text>
<text x="628" y="514">眷</text>
<text x="644" y="514">硼</text>
<text x="20" y="530">勁</text>
<text x="36" y="530">厠</text>
<text x="52" y="530">咆</text>
<text x="68" y="530">啻</text>
<text x="84" y="530">嚮</text>
<text x="100" y="530">垓</text>
<text x="116" y="530">壥</text>
<text x="132" y="530">姨</text>
<text x="148" y="530">孅</text>
<text x="164" y="530">尸</text>
<text x="180" y="530">崔</text>
<text x="196" y="530">幀</text>
<text x="212" y="530">弑</text>
<text x="228" y="530">恠</text>
<text x="244" y="530">惓</text>
<text x="260" y="530">慥</text>
<text x="276" y="530">戔</text>
<text x="292" y="530">挌</text>
<text x="308" y="530">攝</text>
<text x="324" y="530">攣</text>
<text x="340" y="530">昵</text>
<text x="356" y="530">朞</text>
<text x="372" y="530">柆</text>
<text x="388" y="530">棍</text>
<text x="404" y="530">槁</text>
<text x="420" y="530">橸</text>
<text x="436" y="530">歇</text>
<text x="452" y="530">氛</text>
<text x="468" y="530">洳</text>
<text x="484" y="530">渣</text>
<text x="500" y="530">滌</text>
<text x="516" y="530">瀏</text>
<text x="532" y="530">熕</text>
<text x="548" y="530">犧</text>
<text x="564" y="530">珥</text>
<text x="580" y="530">甅</text>
<text x="596" y="530">疸</text>
<text x="612" y="530">癰</text>
<text x="628" y="530">眸</text>
<text x="644" y="530">碚</text>
<text x="20" y="546">勍</text>
<text x="36" y="546">厦</text>
<text x="52" y="546">哇</text>
<text x="68" y="546">啾</text>
<text x="84" y="546">嚶</text>
<text x="100" y="546">垠</text>
<text x="116" y="546">壜</text>
<text x="132" y="546">姜</text>
<text x="148" y="546">孀</text>
<text x="164" y="546">尹</text>
<text x="180" y="546">崢</text>
<text x="196" y="546">幎</text>
<text x="212" y="546">弖</text>
<text x="228" y="546">怙</text>
<text x="244" y="546">悴</text>
<text x="260" y="546">慱</text>
<text x="276" y="546">戛</text>
<text x="292" y="546">拮</text>
<text x="308" y="546">搗</text>
<text x="324" y="546">攫</text>
<text x="340" y="546">昶</text>
<text x="356" y="546">朦</text>
<text x="372" y="546">柧</text>
<text x="388" y="546">棔</text>
<text x="404" y="546">槓</text>
<text x="420" y="546">橇</text>
<text x="436" y="546">歃</text>
<text x="452" y="546">氤</text>
<text x="468" y="546">洒</text>
<text x="484" y="546">湫</text>
<text x="500" y="546">漾</text>
<text x="516" y="546">濾</text>
<text x="532" y="546">熨</text>
<text x="548" y="546">犹</text>
<text x="564" y="546">珮</text>
<text x="580" y="546">甌</text>
<text x="596" y="546">疼</text>
<text x="612" y="546">癲</text>
<text x="628" y="546">睇</text>
<text x="644" y="546">碌</text>
<text x="20" y="562">勗</text>
<text x="36" y="562">厥</text>
<text x="52" y="562">咢</text>
<text x="68" y="562">喘</text>
<text x="84" y="562">嚴</text>
<text x="100" y="562">垳</text>
<text x="116" y="562">壤</text>
<text x="132" y="562">妍</text>
<text x="148" y="562">孑</text>
<text x="164" y="562">屁</text>
<text x="180" y="562">崚</text>
<text x="196" y="562">幗</text>
<text x="212" y="562">弩</text>
<text x="228" y="562">怐</text>
<text x="244" y="562">忰</text>
<text x="260" y="562">慟</text>
<text x="276" y="562">戞</text>
<text x="292" y="562">拱</text>
<text x="308" y="562">搨</text>
<text x="324" y="562">攴</text>
<text x="340" y="562">昴</text>
<text x="356" y="562">朧</text>
<text x="372" y="562">檜</text>
<text x="388" y="562">棧</text>
<text x="404" y="562">榾</text>
<text x="420" y="562">橢</text>
<text x="436" y="562">歉</text>
<text x="452" y="562">氣</text>
<text x="468" y="562">洌</text>
<text x="484" y="562">渫</text>
<text x="500" y="562">漓</text>
<text x="516" y="562">瀛</text>
<text x="532" y="562">熬</text>
<text x="548" y="562">犲</text>
<text x="564" y="562">珞</text>
<text x="580" y="562">甎</text>
<text x="596" y="562">疱</text>
<text x="612" y="562">癶</text>
<text x="628" y="562">睚</text>
<text x="644" y="562">碣</text>
<text x="20" y="578">勞</text>
<text x="36" y="578">厮</text>
<text x="52" y="578">咸</text>
<text x="68" y="578">喞</text>
<text x="84" y="578">囂</text>
<text x="100" y="578">垤</text>
<text x="116" y="578">壟</text>
<text x="132" y="578">姙</text>
<text x="148" y="578">孕</text>
<text x="164" y="578">屆</text>
<text x="180" y="578">崙</text>
<text x="196" y="578">幔</text>
<text x="212" y="578">弭</text>
<text x="228" y="578">怩</text>
<text x="244" y="578">悽</text>
<text x="260" y="578">慝</text>
<text x="276" y="578">戡</text>
<text x="292" y="578">挧</text>
<text x="308" y="578">搏</text>
<text x="324" y="578">攵</text>
<text x="340" y="578">昜</text>
<text x="356" y="578">霸</text>
<text x="372" y="578">栞</text>
<text x="388" y="578">棕</text>
<text x="404" y="578">槎</text>
<text x="420" y="578">橙</text>
<text x="436" y="578">歐</text>
<text x="452" y="578">汞</text>
<text x="468" y="578">浣</text>
<text x="484" y="578">湶</text>
<text x="500" y="578">滷</text>
<text x="516" y="578">瀚</text>
<text x="532" y="578">燗</text>
<text x="548" y="578">狃</text>
<text x="564" y="578">璢</text>
<text x="580" y="578">甍</text>
<text x="596" y="578">痍</text>
<text x="612" y="578">癸</text>
<text x="628" y="578">睨</text>
<text x="644" y="578">碵</text>
<text x="20" y="594">勣</text>
<text x="36" y="594">厰</text>
<text x="52" y="594">咥</text>
<text x="68" y="594">單</text>
<text x="84" y="594">嚼</text>
<text x="100" y="594">垪</text>
<text x="116" y="594">壯</text>
<text x="132" y="594">姚</text>
<text x="148" y="594">孚</text>
<text x="164" y="594">屎</text>
<text x="180" y="594">崘</text>
<text x="196" y="594">幟</text>
<text x="212" y="594">弸</text>
<text x="228" y="594">怎</text>
<text x="244" y="594">惆</text>
<text x="260" y="594">慓</text>
<text x="276" y="594">截</text>
<text x="292" y="594">挂</text>
<text x="308" y="594">摧</text>
<text x="324" y="594">攷</text>
<text x="340" y="594">晏</text>
<text x="356" y="594">朮</text>
<text x="372" y="594">框</text>
<text x="388" y="594">椶</text>
<text x="404" y="594">寨</text>
<text x="420" y="594">橦</text>
<text x="436" y="594">歙</text>
<text x="452" y="594">汕</text>
<text x="468" y="594">涓</text>
<text x="484" y="594">湍</text>
<text x="500" y="594">澆</text>
<text x="516" y="594">潴</text>
<text x="532" y="594">熹</text>
<text x="548" y="594">狆</text>
<text x="564" y="594">琅</text>
<text x="580" y="594">甕</text>
<text x="596" y="594">痊</text>
<text x="612" y="594">發</text>
<text x="628" y="594">睫</text>
<text x="644" y="594">碪</text>
<text x="20" y="610">勦</text>
<text x="36" y="610">厶</text>
<text x="52" y="610">咬</text>
<text x="68" y="610">啼</text>
<text x="84" y="610">囁</text>
<text x="100" y="610">垰</text>
<text x="116" y="610">壺</text>
<text x="132" y="610">娥</text>
<text x="148" y="610">孛</text>
<text x="164" y="610">屓</text>
<text x="180" y="610">嵌</text>
<text x="196" y="610">幢</text>
<text x="212" y="610">彁</text>
<text x="228" y="610">怱</text>
<text x="244" y="610">悵</text>
<text x="260" y="610">慵</text>
<text x="276" y="610">戮</text>
<text x="292" y="610">挈</text>
<text x="308" y="610">摶</text>
<text x="324" y="610">收</text>
<text x="340" y="610">晄</text>
<text x="356" y="610">朿</text>
<text x="372" y="610">栩</text>
<text x="388" y="610">椒</text>
<text x="404" y="610">槊</text>
<text x="420" y="610">橈</text>
<text x="436" y="610">歔</text>
<text x="452" y="610">汢</text>
<text x="468" y="610">浤</text>
<text x="484" y="610">渟</text>
<text x="500" y="610">潺</text>
<text x="516" y="610">瀝</text>
<text x="532" y="610">熾</text>
<text x="548" y="610">狄</text>
<text x="564" y="610">瑯</text>
<text x="580" y="610">甓</text>
<text x="596" y="610">痒</text>
<text x="612" y="610">皀</text>
<text x="628" y="610">睛</text>
<text x="644" y="610">碯</text>
<text x="20" y="626">飭</text>
<text x="36" y="626">參</text>
<text x="52" y="626">哄</text>
<text x="68" y="626">喃</text>
<text x="84" y="626">囃</text>
<text x="100" y="626">埃</text>
<text x="116" y="626">壹</text>
<text x="132" y="626">娟</text>
<text x="148" y="626">孥</text>
<text x="164" y="626">屐</text>
<text x="180" y="626">嵒</text>
<text x="196" y="626">幤</text>
<text x="212" y="626">彈</text>
<text x="228" y="626">怛</text>
<text x="244" y="626">惘</text>
<text x="260" y="626">憙</text>
<text x="276" y="626">戰</text>
<text x="292" y="626">拯</text>
<text x="308" y="626">摎</text>
<text x="324" y="626">攸</text>
<text x="340" y="626">晉</text>
<text x="356" y="626">朶</text>
<text x="372" y="626">桀</text>
<text x="388" y="626">椄</text>
<text x="404" y="626">槝</text>
<text x="420" y="626">樸</text>
<text x="436" y="626">歛</text>
<text x="452" y="626">汪</text>
<text x="468" y="626">浚</text>
<text x="484" y="626">湃</text>
<text x="500" y="626">潸</text>
<text x="516" y="626">瀘</text>
<text x="532" y="626">燒</text>
<text x="548" y="626">狎</text>
<text x="564" y="626">琥</text>
<text x="580" y="626">甞</text>
<text x="596" y="626">痙</text>
<text x="612" y="626">皃</text>
<text x="628" y="626">睥</text>
<text x="644" y="626">磑</text>
<text x="20" y="642">勠</text>
<text x="36" y="642">簒</text>
<text x="52" y="642">哈</text>
<text x="68" y="642">喇</text>
<text x="84" y="642">囀</text>
<text x="100" y="642">埆</text>
<text x="116" y="642">壻</text>
<text x="132" y="642">娑</text>
<text x="148" y="642">孩</text>
<text x="164" y="642">屏</text>
<text x="180" y="642">嵎</text>
<text x="196" y="642">幇</text>
<text x="212" y="642">彌</text>
<text x="228" y="642">怕</text>
<text x="244" y="642">慍</text>
<text x="260" y="642">憖</text>
<text x="276" y="642">戲</text>
<text x="292" y="642">拵</text>
<text x="308" y="642">攪</text>
<text x="324" y="642">畋</text>
<text x="340" y="642">晁</text>
<text x="356" y="642">杁</text>
<text x="372" y="642">桍</text>
<text x="388" y="642">棗</text>
<text x="404" y="642">榻</text>
<text x="420" y="642">樢</text>
<text x="436" y="642">歟</text>
<text x="452" y="642">沂</text>
<text x="468" y="642">浹</text>
<text x="484" y="642">渺</text>
<text x="500" y="642">澁</text>
<text x="516" y="642">瀟</text>
<text x="532" y="642">燉</text>
<text x="548" y="642">狒</text>
<text x="564" y="642">珸</text>
<text x="580" y="642">甦</text>
<text x="596" y="642">痣</text>
<text x="612" y="642">皈</text>
<text x="628" y="642">睿</text>
<text x="644" y="642">磆</text>
<text x="20" y="658">勳</text>
<text x="36" y="658">雙</text>
<text x="52" y="658">咨</text>
<text x="68" y="658">喨</text>
<text x="84" y="658">囈</text>
<text x="100" y="658">埔</text>
<text x="116" y="658">壼</text>
<text x="132" y="658">娜</text>
<text x="148" y="658">孰</text>
<text x="164" y="658">孱</text>
<text x="180" y="658">嵋</text>
<text x="196" y="658">幵</text>
<text x="212" y="658">彎</text>
<text x="228" y="658">怫</text>
<text x="244" y="658">愕</text>
<text x="260" y="658">憇</text>
<text x="276" y="658">戳</text>
<text x="292" y="658">捐</text>
<text x="308" y="658">撕</text>
<text x="324" y="658">效</text>
<text x="340" y="658">晞</text>
<text x="356" y="658">朸</text>
<text x="372" y="658">栲</text>
<text x="388" y="658">棣</text>
<text x="404" y="658">槃</text>
<text x="420" y="658">檐</text>
<text x="436" y="658">歡</text>
<text x="452" y="658">沍</text>
<text x="468" y="658">浙</text>
<text x="484" y="658">湎</text>
<text x="500" y="658">澀</text>
<text x="516" y="658">瀰</text>
<text x="532" y="658">燔</text>
<text x="548" y="658">狢</text>
<text x="564" y="658">琲</text>
<text x="580" y="658">甬</text>
<text x="596" y="658">痞</text>
<text x="612" y="658">皋</text>
<text x="628" y="658">睾</text>
<text x="644" y="658">磋</text>
</g>
</svg>
